<?xml version="1.0" encoding="utf-8"?>
<!-- Generator: Adobe Illustrator 23.0.1, SVG Export Plug-In . SVG Version: 6.00 Build 0)  -->
<svg version="1.1" id="katman_1" xmlns="http://www.w3.org/2000/svg" xmlns:xlink="http://www.w3.org/1999/xlink" x="0px" y="0px"
	 viewBox="0 0 90.5 80.1" style="enable-background:new 0 0 90.5 80.1;" xml:space="preserve">
<style type="text/css">
	.st0{fill:#FFFFFF;stroke:#FFFFFF;stroke-miterlimit:10;}
	.st1{fill:none;stroke:#FFFFFF;stroke-width:8;stroke-miterlimit:10;}
</style>
<g>
	<g>
		<path class="st0" d="M45.2,69.9c-1.1,0-2.1-0.3-3-0.8c-0.9-0.5-1.6-1.3-2.2-2.2c-0.6-0.9-0.8-1.9-0.8-3c0-1.7,0.6-3.1,1.8-4.3
			c1.2-1.2,2.6-1.8,4.2-1.8c1.7,0,3.1,0.6,4.3,1.8c1.2,1.2,1.8,2.6,1.8,4.3c0,1.6-0.6,3-1.8,4.2S46.9,69.9,45.2,69.9z M41.9,54.9
			l-2-31.2h10.8l-2,31.2H41.9z"/>
	</g>
	<path class="st1" d="M42.7,5.5l-38.1,66c-1.2,2,0.3,4.5,2.6,4.5h76.2c2.3,0,3.8-2.5,2.6-4.5l-38.1-66C46.7,3.5,43.8,3.5,42.7,5.5z"
		/>
</g>
<g>
</g>
<g>
</g>
<g>
</g>
<g>
</g>
<g>
</g>
</svg>
