<?xml version="1.0" encoding="utf-8"?>
<!-- Generator: Adobe Illustrator 23.0.1, SVG Export Plug-In . SVG Version: 6.00 Build 0)  -->
<svg version="1.1" id="katman_1" xmlns="http://www.w3.org/2000/svg" xmlns:xlink="http://www.w3.org/1999/xlink" x="0px" y="0px"
	 viewBox="0 0 100 100" style="enable-background:new 0 0 100 100;" xml:space="preserve">
<style type="text/css">
	.st0{fill:#FFFFFF;}
</style>
<g>
	<path class="st0" d="M29.48,68.47c2.77,0,5.24-0.39,7.4-1.18c2.16-0.79,3.75-1.57,4.76-2.34l4.28,8.52
		c-1.23,1.07-3.34,2.15-6.34,3.24c-3,1.09-6.58,1.64-10.74,1.64c-3.89,0-7.54-0.69-10.92-2.06c-3.39-1.37-6.36-3.29-8.92-5.76
		c-2.56-2.47-4.56-5.36-6-8.68c-1.44-3.32-2.16-6.91-2.16-10.78c0-3.87,0.71-7.47,2.14-10.82c1.43-3.35,3.42-6.26,5.98-8.74
		c2.56-2.48,5.54-4.41,8.94-5.8c3.4-1.39,7.05-2.08,10.94-2.08c4.16,0,7.74,0.55,10.74,1.64c3,1.09,5.11,2.17,6.34,3.24l-4.28,8.52
		c-1.01-0.77-2.6-1.55-4.76-2.34c-2.16-0.79-4.63-1.18-7.4-1.18c-2.83,0-5.34,0.45-7.54,1.36c-2.2,0.91-4.07,2.17-5.6,3.78
		c-1.53,1.61-2.7,3.47-3.5,5.58c-0.8,2.11-1.2,4.35-1.2,6.72c0,2.4,0.4,4.66,1.2,6.78c0.8,2.12,1.97,3.99,3.5,5.6
		c1.53,1.61,3.4,2.87,5.6,3.78C24.15,68.02,26.66,68.47,29.48,68.47z"/>
	<path class="st0" d="M80.69,77.39h-11.4l-19-52.8h11.24l13.48,40.24l13.48-40.24h11.24L80.69,77.39z"/>
</g>
<g>
</g>
<g>
</g>
<g>
</g>
<g>
</g>
<g>
</g>
</svg>
