<?xml version="1.0" encoding="utf-8"?>
<!-- Generator: Adobe Illustrator 23.0.1, SVG Export Plug-In . SVG Version: 6.00 Build 0)  -->
<svg version="1.1" id="katman_1" xmlns="http://www.w3.org/2000/svg" xmlns:xlink="http://www.w3.org/1999/xlink" x="0px" y="0px"
	 viewBox="0 0 300 300" style="enable-background:new 0 0 300 300;" xml:space="preserve">
<style type="text/css">
	.st0{clip-path:url(#SVGID_2_);}
	.st1{fill:#FFFFFF;}
</style>
<g>
	<defs>
		<circle id="SVGID_1_" cx="150" cy="150" r="150"/>
	</defs>
	<clipPath id="SVGID_2_">
		<use xlink:href="#SVGID_1_"  style="overflow:visible;"/>
	</clipPath>
	<g id="XMLID_1_" class="st0">
		<polygon class="st1" points="229.7,200 200,200 200,229.7 270.3,300 250,300 200,250 200,300 180,300 180,180 300,180 300,200 
			250,200 300,250 300,270.3 		"/>
	</g>
	<g id="XMLID_2_" class="st0">
		<polygon class="st1" points="229.7,100 200,100 200,70.3 270.3,0 250,0 200,50 200,0 180,0 180,120 300,120 300,100 250,100 
			300,50 300,29.7 		"/>
	</g>
	<g id="XMLID_3_" class="st0">
		<polygon class="st1" points="70.3,100 100,100 100,70.3 29.7,0 50,0 100,50 100,0 120,0 120,120 0,120 0,100 50,100 0,50 0,29.7 
					"/>
	</g>
	<g id="XMLID_4_" class="st0">
		<polygon class="st1" points="70.3,200 100,200 100,229.7 29.7,300 50,300 100,250 100,300 120,300 120,180 0,180 0,200 50,200 
			0,250 0,270.3 		"/>
	</g>
</g>
<g>
</g>
<g>
</g>
<g>
</g>
<g>
</g>
<g>
</g>
</svg>
