<?xml version="1.0" encoding="utf-8"?>
<!-- Generator: Adobe Illustrator 23.0.1, SVG Export Plug-In . SVG Version: 6.00 Build 0)  -->
<svg version="1.1" id="katman_1" xmlns="http://www.w3.org/2000/svg" xmlns:xlink="http://www.w3.org/1999/xlink" x="0px" y="0px"
	 viewBox="0 0 300 300" style="enable-background:new 0 0 300 300;" xml:space="preserve">
<style type="text/css">
	.st0{clip-path:url(#SVGID_2_);}
	.st1{clip-path:url(#SVGID_4_);}
	.st2{clip-path:url(#SVGID_6_);}
	.st3{clip-path:url(#SVGID_8_);stroke:#FFFFFF;stroke-width:60;}
	.st4{clip-path:url(#SVGID_10_);stroke:#000000;stroke-width:40;}
	.st5{clip-path:url(#SVGID_12_);}
	.st6{clip-path:url(#SVGID_14_);stroke:#FFFFFF;stroke-width:100;}
	.st7{clip-path:url(#SVGID_16_);fill:none;stroke:#000000;stroke-width:60;}
	.st8{clip-path:url(#SVGID_18_);fill:none;}
</style>
<g>
	<defs>
		<circle id="SVGID_1_" cx="150" cy="150" r="150"/>
	</defs>
	<clipPath id="SVGID_2_">
		<use xlink:href="#SVGID_1_"  style="overflow:visible;"/>
	</clipPath>
	<g class="st0">
		<defs>
			<rect id="SVGID_3_" x="150" width="150" height="300"/>
		</defs>
		<clipPath id="SVGID_4_">
			<use xlink:href="#SVGID_3_"  style="overflow:visible;"/>
		</clipPath>
		<g class="st1">
			<g>
				<g>
					<defs>
						<circle id="SVGID_5_" cx="150" cy="150" r="150"/>
					</defs>
					<clipPath id="SVGID_6_">
						<use xlink:href="#SVGID_5_"  style="overflow:visible;"/>
					</clipPath>
					<rect class="st2" width="300" height="300"/>
				</g>
			</g>
			<g>
				<g>
					<defs>
						<circle id="SVGID_7_" cx="150" cy="150" r="150"/>
					</defs>
					<clipPath id="SVGID_8_">
						<use xlink:href="#SVGID_7_"  style="overflow:visible;"/>
					</clipPath>
					<path class="st3" d="M0,0l300,300 M300,0L0,300"/>
				</g>
			</g>
			<g>
				<g>
					<defs>
						<circle id="SVGID_9_" cx="150" cy="150" r="150"/>
					</defs>
					<clipPath id="SVGID_10_">
						<use xlink:href="#SVGID_9_"  style="overflow:visible;"/>
					</clipPath>
					<path class="st4" d="M0,0l300,300 M300,0L0,300"/>
				</g>
			</g>
			<g>
				<g>
					<defs>
						<circle id="SVGID_11_" cx="150" cy="150" r="150"/>
					</defs>
					<clipPath id="SVGID_12_">
						<use xlink:href="#SVGID_11_"  style="overflow:visible;"/>
					</clipPath>
					<path class="st5" d="M150,150v-30L30,0H0l180,150L300,30V0L150,180l120,120h30L120,150L0,270v30L150,150z"/>
				</g>
			</g>
			<g>
				<g>
					<defs>
						<circle id="SVGID_13_" cx="150" cy="150" r="150"/>
					</defs>
					<clipPath id="SVGID_14_">
						<use xlink:href="#SVGID_13_"  style="overflow:visible;"/>
					</clipPath>
					<path class="st6" d="M150,0v300 M0,150h300"/>
				</g>
			</g>
			<g>
				<g>
					<defs>
						<circle id="SVGID_15_" cx="150" cy="150" r="150"/>
					</defs>
					<clipPath id="SVGID_16_">
						<use xlink:href="#SVGID_15_"  style="overflow:visible;"/>
					</clipPath>
					<path class="st7" d="M150,0v300 M0,150h300"/>
				</g>
			</g>
		</g>
	</g>
	<g class="st0">
		<defs>
			<rect id="SVGID_17_" width="150" height="300"/>
		</defs>
		<clipPath id="SVGID_18_">
			<use xlink:href="#SVGID_17_"  style="overflow:visible;"/>
		</clipPath>
		<path class="st8" d="M150,199l32.8,101l-85.8-62.4h106.1L117.2,300L150,199z M90.3,205.9C38.2,173,22.7,104,55.7,51.9
			s101.9-67.6,154-34.7s67.6,101.9,34.7,154c-8.8,14-20.6,25.8-34.7,34.7c36.7-33,39.7-89.4,6.8-126.1S127,40.2,90.3,73.1
			s-39.7,89.4-6.8,126.1C85.7,201.6,88,203.8,90.3,205.9z"/>
	</g>
</g>
<g>
</g>
<g>
</g>
<g>
</g>
<g>
</g>
<g>
</g>
</svg>
