<?xml version="1.0" encoding="utf-8"?>
<!-- Generator: Adobe Illustrator 23.0.1, SVG Export Plug-In . SVG Version: 6.00 Build 0)  -->
<svg version="1.1" id="katman_1" xmlns="http://www.w3.org/2000/svg" xmlns:xlink="http://www.w3.org/1999/xlink" x="0px" y="0px"
	 viewBox="0 0 300 300" style="enable-background:new 0 0 300 300;" xml:space="preserve">
<style type="text/css">
	.st0{clip-path:url(#SVGID_2_);}
	.st1{fill:#FFFFFF;}
	.st2{clip-path:url(#SVGID_4_);}
	.st3{clip-path:url(#SVGID_6_);}
	.st4{clip-path:url(#SVGID_8_);}
	.st5{clip-path:url(#SVGID_10_);}
	.st6{clip-path:url(#SVGID_12_);}
</style>
<g>
	<defs>
		<path id="SVGID_1_" d="M150,0c82.8,0,150,67.2,150,150s-67.2,150-150,150 M150,0c-41.4,0-75,33.6-75,75s33.6,75,75,75 M150,300
			c41.4,0,75-33.6,75-75s-33.6-75-75-75"/>
	</defs>
	<clipPath id="SVGID_2_">
		<use xlink:href="#SVGID_1_"  style="overflow:visible;"/>
	</clipPath>
	<g class="st0">
		<path class="st1" d="M226.9,173.5l94.6,48.3l-104.7,16.6l75.1-75.1L275.2,268L226.9,173.5z M189.6,220.5
			c-60,13.5-119.9-24.2-133.3-84.4S80.5,16.2,140.5,2.7S260.4,27,273.8,87.1c3.7,16.1,3.7,32.9,0,48.9c2.5-49.3-35.2-91.2-84.4-93.9
			c-49.2-2.7-91.2,35.2-93.9,84.4s35.2,91.2,84.4,93.9C183.3,220.6,186.4,220.6,189.6,220.5z"/>
	</g>
</g>
<g>
	<defs>
		<path id="SVGID_3_" d="M150,300C67.2,300,0,232.8,0,150S67.2,0,150,0 M150,300c41.4,0,75-33.6,75-75s-33.6-75-75-75 M150,0
			c-41.4,0-75,33.6-75,75s33.6,75,75,75"/>
	</defs>
	<clipPath id="SVGID_4_">
		<use xlink:href="#SVGID_3_"  style="overflow:visible;"/>
	</clipPath>
	<g class="st2">
		<g>
			<defs>
				<circle id="SVGID_5_" cx="150" cy="150" r="150"/>
			</defs>
			<clipPath id="SVGID_6_">
				<use xlink:href="#SVGID_5_"  style="overflow:visible;"/>
			</clipPath>
			<g id="XMLID_8_" class="st3">
				<polygon class="st1" points="229.6,200 200,200 200,229.8 270.2,300 250,300 200,250 200,300 180,300 180,180 300,180 300,200 
					250,200 300,250 300,270.2 				"/>
			</g>
		</g>
		<g>
			<defs>
				<circle id="SVGID_7_" cx="150" cy="150" r="150"/>
			</defs>
			<clipPath id="SVGID_8_">
				<use xlink:href="#SVGID_7_"  style="overflow:visible;"/>
			</clipPath>
			<g id="XMLID_7_" class="st4">
				<polygon class="st1" points="229.6,100 200,100 200,70.2 270.2,0 250,0 200,50 200,0 180,0 180,120 300,120 300,100 250,100 
					300,50 300,29.8 				"/>
			</g>
		</g>
		<g>
			<defs>
				<circle id="SVGID_9_" cx="150" cy="150" r="150"/>
			</defs>
			<clipPath id="SVGID_10_">
				<use xlink:href="#SVGID_9_"  style="overflow:visible;"/>
			</clipPath>
			<g id="XMLID_6_" class="st5">
				<polygon class="st1" points="70.2,100 100,100 100,70.2 29.6,0 50,0 100,50 100,0 120,0 120,120 0,120 0,100 50,100 0,50 
					0,29.8 				"/>
			</g>
		</g>
		<g>
			<defs>
				<circle id="SVGID_11_" cx="150" cy="150" r="150"/>
			</defs>
			<clipPath id="SVGID_12_">
				<use xlink:href="#SVGID_11_"  style="overflow:visible;"/>
			</clipPath>
			<g id="XMLID_5_" class="st6">
				<polygon class="st1" points="70.2,200 100,200 100,229.8 29.6,300 50,300 100,250 100,300 120,300 120,180 0,180 0,200 50,200 
					0,250 0,270.2 				"/>
			</g>
		</g>
	</g>
</g>
</svg>
