<?xml version="1.0" encoding="utf-8"?>
<!-- Generator: Adobe Illustrator 23.0.1, SVG Export Plug-In . SVG Version: 6.00 Build 0)  -->
<svg version="1.1" id="katman_1" xmlns="http://www.w3.org/2000/svg" xmlns:xlink="http://www.w3.org/1999/xlink" x="0px" y="0px"
	 viewBox="0 0 100 100" style="enable-background:new 0 0 100 100;" xml:space="preserve">
<style type="text/css">
	.st0{fill:#FFFFFF;}
</style>
<g>
</g>
<g>
	<path class="st0" d="M49.56,97.61c-6.81,0-13.17-1.15-19.08-3.44c-5.91-2.29-11.1-5.55-15.57-9.76
		c-4.47-4.22-7.97-9.23-10.49-15.05C1.9,63.54,0.64,57.09,0.64,50c0-7.04,1.34-13.47,4.03-19.29c2.69-5.81,6.36-10.83,11.02-15.05
		c4.66-4.22,10.02-7.46,16.09-9.73c6.07-2.27,12.51-3.41,19.32-3.41c6.49,0,12.61,1.07,18.38,3.2c5.77,2.13,10.89,5.15,15.36,9.07
		c4.47,3.92,7.97,8.58,10.49,14c2.52,5.42,3.79,11.42,3.79,18c0,5.51-1.1,10.1-3.3,13.76c-2.2,3.66-4.95,6.41-8.24,8.24
		c-3.29,1.83-6.63,2.75-10.01,2.75c-3.66,0-6.43-0.86-8.31-2.57c-1.88-1.71-3.02-3.78-3.44-6.19c-0.42,1.62-1.4,3.27-2.95,4.93
		c-1.55,1.67-3.66,3.07-6.32,4.2c-2.67,1.14-5.83,1.7-9.49,1.7c-4.68,0-8.76-1.05-12.23-3.16c-3.48-2.11-6.17-4.91-8.1-8.41
		c-1.92-3.5-2.88-7.35-2.88-11.57c0-4.17,0.93-7.93,2.78-11.29c1.85-3.36,4.46-6.02,7.82-7.99c3.36-1.97,7.31-2.95,11.85-2.95
		c2.96,0,5.57,0.49,7.82,1.46c2.25,0.97,4.12,2.08,5.63,3.34c1.5,1.25,2.56,2.29,3.16,3.13v-6.39h8.34v26.27
		c0,0.79,0.15,1.76,0.45,2.92c0.3,1.16,0.9,2.19,1.81,3.09c0.9,0.9,2.26,1.36,4.07,1.36c1.71,0,3.49-0.59,5.32-1.77
		c1.83-1.18,3.37-3.02,4.62-5.53c1.25-2.5,1.88-5.72,1.88-9.66c0-4.96-0.96-9.56-2.88-13.8c-1.92-4.24-4.61-7.96-8.06-11.15
		c-3.45-3.2-7.51-5.67-12.16-7.44c-4.66-1.76-9.72-2.64-15.19-2.64c-5.38,0-10.51,0.96-15.39,2.88c-4.89,1.92-9.23,4.63-13.03,8.13
		c-3.8,3.5-6.8,7.59-9,12.27c-2.2,4.68-3.3,9.78-3.3,15.29c0,5.47,1.04,10.52,3.13,15.15c2.08,4.63,4.95,8.68,8.58,12.13
		c3.64,3.45,7.82,6.13,12.54,8.03c4.73,1.9,9.71,2.85,14.94,2.85c4.35,0,8.27-0.57,11.75-1.7c3.48-1.13,6.42-2.51,8.83-4.14
		c2.41-1.62,4.17-3.17,5.28-4.66l8.06,6.74c-1.44,1.85-3.73,3.81-6.88,5.87c-3.15,2.06-7,3.8-11.54,5.21
		C60.52,96.9,55.35,97.61,49.56,97.61z M48.66,65.08c4.49,0,8-1.46,10.53-4.38c2.52-2.92,3.79-6.37,3.79-10.36
		c0-2.73-0.65-5.13-1.95-7.19c-1.3-2.06-3.02-3.68-5.18-4.87c-2.15-1.18-4.55-1.77-7.19-1.77c-4.22,0-7.71,1.35-10.49,4.07
		C35.39,43.29,34,46.66,34,50.69c0,4.03,1.33,7.44,4,10.22C40.66,63.69,44.21,65.08,48.66,65.08z"/>
</g>
<g>
</g>
<g>
</g>
<g>
</g>
<g>
</g>
<g>
</g>
<g>
</g>
</svg>
