<?xml version="1.0" encoding="utf-8"?>
<!-- Generator: Adobe Illustrator 23.0.1, SVG Export Plug-In . SVG Version: 6.00 Build 0)  -->
<svg version="1.1" id="katman_1" xmlns="http://www.w3.org/2000/svg" xmlns:xlink="http://www.w3.org/1999/xlink" x="0px" y="0px"
	 viewBox="0 0 100 100" style="enable-background:new 0 0 100 100;" xml:space="preserve">
<style type="text/css">
	.st0{fill:#FFFFFF;}
</style>
<g>
	<path class="st0" d="M49.8,88.2c-5.5,0-10.6-0.9-15.3-2.8s-8.9-4.5-12.5-7.8c-3.6-3.4-6.4-7.4-8.4-12.1s-3-9.8-3-15.5
		c0-5.6,1.1-10.8,3.2-15.5c2.2-4.7,5.1-8.7,8.8-12.1s8-6,12.9-7.8s10-2.7,15.5-2.7c5.2,0,10.1,0.9,14.7,2.6s8.7,4.1,12.3,7.3
		s6.4,6.9,8.4,11.2s3,9.2,3,14.4c0,4.4-0.9,8.1-2.6,11c-1.8,2.9-4,5.1-6.6,6.6s-5.3,2.2-8,2.2c-2.9,0-5.2-0.7-6.7-2.1s-2.4-3-2.8-5
		c-0.3,1.3-1.1,2.6-2.4,4c-1.2,1.3-2.9,2.5-5.1,3.4c-2.1,0.9-4.7,1.4-7.6,1.4c-3.8,0-7-0.8-9.8-2.5s-5-3.9-6.5-6.7S29,53.8,29,50.4
		c0-3.3,0.7-6.4,2.2-9.1c1.5-2.7,3.6-4.8,6.3-6.4c2.7-1.6,5.9-2.4,9.5-2.4c2.4,0,4.5,0.4,6.3,1.2s3.3,1.7,4.5,2.7s2.1,1.8,2.5,2.5
		v-5.1h6.9v21.1c0,0.6,0.1,1.4,0.4,2.3c0.2,0.9,0.7,1.8,1.5,2.5c0.7,0.7,1.8,1.1,3.3,1.1c1.4,0,2.8-0.5,4.3-1.4s2.7-2.4,3.7-4.4
		s1.5-4.6,1.5-7.8c0-4-0.8-7.7-2.3-11.1c-1.5-3.4-3.7-6.4-6.5-8.9c-2.8-2.6-6-4.5-9.8-6c-3.7-1.4-7.8-2.1-12.2-2.1
		c-4.3,0-8.4,0.8-12.3,2.3s-7.4,3.7-10.5,6.5c-3.1,2.8-5.5,6.1-7.2,9.8c-1.8,3.8-2.6,7.8-2.6,12.3c0,4.4,0.8,8.4,2.5,12.2
		c1.7,3.7,4,7,6.9,9.7c2.9,2.8,6.3,4.9,10.1,6.4s7.8,2.3,12,2.3c3.5,0,6.6-0.5,9.4-1.4c2.8-0.9,5.2-2,7.1-3.3
		c1.9-1.3,3.3-2.5,4.2-3.7l6.5,5.4c-1.2,1.5-3,3.1-5.5,4.7c-2.5,1.7-5.6,3-9.3,4.2C58.6,87.6,54.5,88.2,49.8,88.2z M49.1,62.1
		c3.6,0,6.4-1.2,8.4-3.5s3-5.1,3-8.3c0-2.2-0.5-4.1-1.6-5.8c-1-1.7-2.4-3-4.2-3.9c-1.7-0.9-3.7-1.4-5.8-1.4c-3.4,0-6.2,1.1-8.4,3.3
		s-3.3,4.9-3.3,8.1s1.1,6,3.2,8.2C42.7,61,45.5,62.1,49.1,62.1z"/>
</g>
</svg>
