<?xml version="1.0" encoding="utf-8"?>
<!-- Generator: Adobe Illustrator 23.0.1, SVG Export Plug-In . SVG Version: 6.00 Build 0)  -->
<svg version="1.1" id="Layer_1" xmlns="http://www.w3.org/2000/svg" xmlns:xlink="http://www.w3.org/1999/xlink" x="0px" y="0px"
	 viewBox="0 0 100 100" style="enable-background:new 0 0 100 100;" xml:space="preserve">
<style type="text/css">
	.st0{fill:none;stroke:#FFFFFF;stroke-width:6;stroke-linecap:round;stroke-linejoin:round;}
	.st1{fill:none;stroke:#FFFFFF;stroke-width:6;stroke-linecap:round;stroke-miterlimit:10;}
</style>
<g>
	<path id="path38" class="st0" d="M78.6,53.1c-1.8,0.4-4,0.4-5.8,0V33h4c4.9,0,9,3.6,9.4,8.5c0,0.4,0,0.4,0,0.9
		C86.7,47.3,83.6,51.8,78.6,53.1 M96.1,39.3c-0.9-4.9-3.6-9.4-8.1-12.5c-3.6-2.2-7.6-3.6-12.1-3.6H14.6c-1.8,0-3.1,1.3-3.1,3.1v0.4
		c0,0,0,27.3,0,41.6c0,4.9,4.5,9,9.4,8.5h41.6c0.4,0,1.3,0,1.8,0c5.8-1.8,9.4-7.2,8.5-13C88,64.8,98.8,53.6,96.1,39.3"/>
	<path class="st1" d="M41.9,66.1c0,0,10.3-9.4,14.8-14.3c3.6-3.6,4-9.4,0-13.4c-0.9-0.9-1.8-1.3-2.7-1.8c-4.5-1.3-9.4,0-12.1,3.6
		 M41.9,66.1c0,0-10.3-9.4-14.8-14.3c-3.6-3.6-4-9.4,0-13.4c0.9-0.9,1.8-1.3,2.7-1.8c4.5-1.3,9.4,0,12.1,3.6"/>
</g>
</svg>
