<?xml version="1.0" encoding="utf-8"?>
<!-- Generator: Adobe Illustrator 23.0.1, SVG Export Plug-In . SVG Version: 6.00 Build 0)  -->
<svg version="1.1" id="katman_1" xmlns="http://www.w3.org/2000/svg" xmlns:xlink="http://www.w3.org/1999/xlink" x="0px" y="0px"
	 viewBox="0 0 250 250" style="enable-background:new 0 0 250 250;" xml:space="preserve">
<style type="text/css">
	.st0{fill:#FFFFFF;}
</style>
<path class="st0" d="M206.4,83.2c0.1,1.8,0.1,3.6,0.1,5.4c0,55.5-42.3,119.6-119.6,119.6v0c-22.8,0-45.2-6.5-64.4-18.8
	c3.3,0.4,6.7,0.6,10,0.6c18.9,0,37.3-6.3,52.2-18c-18-0.3-33.8-12.1-39.3-29.2c6.3,1.2,12.8,1,19-0.7c-19.6-4-33.7-21.2-33.7-41.2
	v-0.5c5.8,3.3,12.4,5.1,19.1,5.3c-18.5-12.3-24.2-36.9-13-56.1c21.3,26.3,52.8,42.2,86.6,43.9c-3.4-14.6,1.2-29.9,12.2-40.2
	c16.9-15.9,43.5-15.1,59.5,1.8c9.4-1.9,18.4-5.3,26.7-10.2c-3.1,9.7-9.7,18-18.5,23.2c8.3-1,16.5-3.2,24.1-6.6
	C221.8,69.9,214.7,77.3,206.4,83.2L206.4,83.2z"/>
</svg>
