<?xml version="1.0" encoding="utf-8"?>
<!-- Generator: Adobe Illustrator 23.0.1, SVG Export Plug-In . SVG Version: 6.00 Build 0)  -->
<svg version="1.1" id="katman_1" xmlns="http://www.w3.org/2000/svg" xmlns:xlink="http://www.w3.org/1999/xlink" x="0px" y="0px"
	 viewBox="0 0 512 512" style="enable-background:new 0 0 512 512;" xml:space="preserve">
<style type="text/css">
	.st0{fill:#FFFFFF;}
</style>
<g>
	<path class="st0" d="M453.8,174c-0.9-21.2-4.4-35.7-9.2-48.3c-5.1-13.4-12.8-25.3-23-35.3c-9.9-10.1-22-18-35.2-22.9
		c-12.7-4.9-27.1-8.2-48.3-9.2C316.8,57.2,310,57,256,57s-60.8,0.2-82,1.2c-21.2,0.9-35.7,4.4-48.3,9.2c-13.4,5.1-25.3,12.8-35.3,23
		c-10.1,9.9-18,22-22.9,35.2c-4.9,12.7-8.2,27.1-9.2,48.3C57.2,195.2,57,202,57,256s0.2,60.9,1.2,82.1c0.9,21.1,4.4,35.7,9.2,48.3
		c5,13.3,12.8,25.3,22.9,35.2c9.9,10.1,22,18,35.2,22.9c12.7,4.9,27.1,8.3,48.3,9.2c21.2,0.9,28,1.2,82,1.2s60.8-0.2,82-1.2
		c21.2-0.9,35.7-4.4,48.3-9.2c26.7-10.3,47.9-31.5,58.2-58.2c4.9-12.7,8.3-27.1,9.2-48.3c0.9-21.2,1.2-28,1.2-82
		C455,202,454.7,195.2,453.8,174z M418,336.4c-0.9,19.4-4.1,29.9-6.8,36.9c-6.7,17.3-20.4,31.1-37.8,37.8c-7,2.7-17.6,6-36.9,6.8
		c-21,0.9-27.3,1.2-80.4,1.2c-53.2,0-59.5-0.2-80.4-1.2c-19.4-0.9-29.9-4.1-36.9-6.8c-8.6-3.2-16.5-8.2-22.9-14.9
		c-6.6-6.5-11.7-14.2-14.9-22.9c-2.7-7-6-17.6-6.8-36.9c-0.9-21-1.2-27.3-1.2-80.4c0-53.2,0.2-59.5,1.2-80.4
		c0.9-19.4,4.1-29.9,6.8-36.9c3.2-8.6,8.3-16.5,14.9-22.9c6.5-6.6,14.2-11.7,22.9-14.8c7-2.7,17.6-6,36.9-6.8
		c21-0.9,27.3-1.2,80.4-1.2l0,0c53.2,0,59.5,0.2,80.4,1.2c19.4,0.9,29.9,4.1,36.9,6.8c8.6,3.2,16.5,8.2,22.9,14.8
		c6.6,6.5,11.7,14.2,14.8,22.9c2.7,7,6,17.6,6.8,36.9c0.9,21,1.2,27.3,1.2,80.4C419.1,309.2,418.9,315.5,418,336.4z"/>
	<path class="st0" d="M256,153.8c-56.4,0-102.2,45.8-102.2,102.2S199.5,358.2,256,358.2S358.2,312.4,358.2,256
		S312.4,153.8,256,153.8z M256,322.3c-36.6,0-66.3-29.7-66.3-66.3s29.7-66.3,66.3-66.3s66.3,29.7,66.3,66.3S292.6,322.3,256,322.3z"
		/>
	<path class="st0" d="M386.1,149.7c0,13.2-10.7,23.9-23.9,23.9c-13.2,0-23.9-10.7-23.9-23.9c0-13.2,10.7-23.9,23.9-23.9
		C375.4,125.9,386.1,136.6,386.1,149.7z"/>
</g>
</svg>
