<?xml version="1.0" encoding="utf-8"?>
<!-- Generator: Adobe Illustrator 23.0.1, SVG Export Plug-In . SVG Version: 6.00 Build 0)  -->
<svg version="1.1" id="katman_1" xmlns="http://www.w3.org/2000/svg" xmlns:xlink="http://www.w3.org/1999/xlink" x="0px" y="0px"
	 viewBox="0 0 100 100" style="enable-background:new 0 0 100 100;" xml:space="preserve">
<style type="text/css">
	.st0{fill:#FFFFFF;}
</style>
<path class="st0" d="M32.5,43c-1.9,0-3.5,1.6-3.5,3.5c0,1.9,1.6,3.5,3.5,3.5c1.9,0,3.5-1.6,3.5-3.5C36,44.6,34.5,43,32.5,43z
	 M74.5,29H71V18.5c0-1.9-1.6-3.5-3.5-3.5h-35c-1.9,0-3.5,1.6-3.5,3.5V29h-3.5C19.7,29,15,33.7,15,39.5v21C15,66.3,19.7,71,25.5,71
	H29v10.5c0,1.9,1.6,3.5,3.5,3.5h35c1.9,0,3.5-1.6,3.5-3.5V71h3.5C80.3,71,85,66.3,85,60.5v-21C85,33.7,80.3,29,74.5,29z M36,22h28v7
	H36V22z M64,78H36V64h28V78z M78,60.5c0,1.9-1.6,3.5-3.5,3.5H71v-3.5c0-1.9-1.6-3.5-3.5-3.5h-35c-1.9,0-3.5,1.6-3.5,3.5V64h-3.5
	c-1.9,0-3.5-1.6-3.5-3.5v-21c0-1.9,1.6-3.5,3.5-3.5h48.9c1.9,0,3.5,1.6,3.5,3.5V60.5z"/>
</svg>
