<?xml version="1.0" encoding="utf-8"?>
<!-- Generator: Adobe Illustrator 23.0.1, SVG Export Plug-In . SVG Version: 6.00 Build 0)  -->
<svg version="1.1" id="Layer_1" xmlns="http://www.w3.org/2000/svg" xmlns:xlink="http://www.w3.org/1999/xlink" x="0px" y="0px"
	 viewBox="0 0 100 100" style="enable-background:new 0 0 100 100;" xml:space="preserve">
<style type="text/css">
	.st0{fill:none;stroke:#000000;stroke-width:5;stroke-linecap:round;stroke-linejoin:round;}
	.st1{fill:none;stroke:#000000;stroke-width:5;stroke-linecap:round;stroke-miterlimit:10;}
</style>
<g>
	<path id="path38" class="st0" d="M77.5,53.5c-2,0.5-4.5,0.5-6.5,0V31h4.5c5.5,0,10,4,10.5,9.5c0,0.5,0,0.5,0,1
		C86.5,47,83,52,77.5,53.5 M97,38c-1-5.5-4-10.5-9-14c-4-2.5-8.5-4-13.5-4H6c-2,0-3.5,1.5-3.5,3.5V24c0,0,0,30.5,0,46.5
		c0,5.5,5,10,10.5,9.5h46.5c0.5,0,1.5,0,2,0C68,78,72,72,71,65.5C88,66.5,100,54,97,38"/>
	<path class="st1" d="M36.5,68c0,0,11.5-10.5,16.5-16c4-4,4.5-10.5,0-15c-1-1-2-1.5-3-2c-5-1.5-10.5,0-13.5,4 M36.5,68
		c0,0-11.5-10.5-16.5-16c-4-4-4.5-10.5,0-15c1-1,2-1.5,3-2c5-1.5,10.5,0,13.5,4"/>
</g>
</svg>
