<?xml version="1.0" encoding="utf-8"?>
<!-- Generator: Adobe Illustrator 23.0.1, SVG Export Plug-In . SVG Version: 6.00 Build 0)  -->
<svg version="1.1" id="katman_1" xmlns="http://www.w3.org/2000/svg" xmlns:xlink="http://www.w3.org/1999/xlink" x="0px" y="0px"
	 viewBox="0 0 100 100" style="enable-background:new 0 0 100 100;" xml:space="preserve">
<style type="text/css">
	.st0{fill:#FFFFFF;stroke:#FFFFFF;stroke-width:4;stroke-miterlimit:10;}
	.st1{fill:none;stroke:#FFFFFF;stroke-width:4;stroke-miterlimit:10;}
</style>
<g>
	<path class="st0" d="M14.5,57.5h-9c-1.7,0-3-1.3-3-3v-9c0-1.7,1.3-3,3-3h9c1.7,0,3,1.3,3,3v9C17.5,56.2,16.2,57.5,14.5,57.5z"/>
	<path class="st1" d="M34.5,57.5h-9c-1.7,0-3-1.3-3-3v-9c0-1.7,1.3-3,3-3h9c1.7,0,3,1.3,3,3v9C37.5,56.2,36.2,57.5,34.5,57.5z"/>
	<path class="st0" d="M54.5,57.5h-9c-1.7,0-3-1.3-3-3v-9c0-1.7,1.3-3,3-3h9c1.7,0,3,1.3,3,3v9C57.5,56.2,56.2,57.5,54.5,57.5z"/>
	<path class="st0" d="M74.5,57.5h-9c-1.7,0-3-1.3-3-3v-9c0-1.7,1.3-3,3-3h9c1.7,0,3,1.3,3,3v9C77.5,56.2,76.2,57.5,74.5,57.5z"/>
	<path class="st1" d="M94.5,57.5h-9c-1.7,0-3-1.3-3-3v-9c0-1.7,1.3-3,3-3h9c1.7,0,3,1.3,3,3v9C97.5,56.2,96.2,57.5,94.5,57.5z"/>
</g>
<g>
	<path class="st0" d="M14.5,87.5h-9c-1.7,0-3-1.3-3-3v-9c0-1.7,1.3-3,3-3h9c1.7,0,3,1.3,3,3v9C17.5,86.2,16.2,87.5,14.5,87.5z"/>
	<path class="st0" d="M34.5,87.5h-9c-1.7,0-3-1.3-3-3v-9c0-1.7,1.3-3,3-3h9c1.7,0,3,1.3,3,3v9C37.5,86.2,36.2,87.5,34.5,87.5z"/>
	<path class="st0" d="M54.5,87.5h-9c-1.7,0-3-1.3-3-3v-9c0-1.7,1.3-3,3-3h9c1.7,0,3,1.3,3,3v9C57.5,86.2,56.2,87.5,54.5,87.5z"/>
	<path class="st0" d="M74.5,87.5h-9c-1.7,0-3-1.3-3-3v-9c0-1.7,1.3-3,3-3h9c1.7,0,3,1.3,3,3v9C77.5,86.2,76.2,87.5,74.5,87.5z"/>
	<path class="st0" d="M94.5,87.5h-9c-1.7,0-3-1.3-3-3v-9c0-1.7,1.3-3,3-3h9c1.7,0,3,1.3,3,3v9C97.5,86.2,96.2,87.5,94.5,87.5z"/>
</g>
<g>
	<path class="st1" d="M14.5,27.5h-9c-1.7,0-3-1.3-3-3v-9c0-1.7,1.3-3,3-3h9c1.7,0,3,1.3,3,3v9C17.5,26.2,16.2,27.5,14.5,27.5z"/>
	<path class="st0" d="M34.5,27.5h-9c-1.7,0-3-1.3-3-3v-9c0-1.7,1.3-3,3-3h9c1.7,0,3,1.3,3,3v9C37.5,26.2,36.2,27.5,34.5,27.5z"/>
	<path class="st1" d="M54.5,27.5h-9c-1.7,0-3-1.3-3-3v-9c0-1.7,1.3-3,3-3h9c1.7,0,3,1.3,3,3v9C57.5,26.2,56.2,27.5,54.5,27.5z"/>
	<path class="st0" d="M74.5,27.5h-9c-1.7,0-3-1.3-3-3v-9c0-1.7,1.3-3,3-3h9c1.7,0,3,1.3,3,3v9C77.5,26.2,76.2,27.5,74.5,27.5z"/>
	<path class="st1" d="M94.5,27.5h-9c-1.7,0-3-1.3-3-3v-9c0-1.7,1.3-3,3-3h9c1.7,0,3,1.3,3,3v9C97.5,26.2,96.2,27.5,94.5,27.5z"/>
</g>
</svg>
