<?xml version="1.0" encoding="utf-8"?>
<!-- Generator: Adobe Illustrator 23.0.1, SVG Export Plug-In . SVG Version: 6.00 Build 0)  -->
<svg version="1.1" id="katman_1" xmlns="http://www.w3.org/2000/svg" xmlns:xlink="http://www.w3.org/1999/xlink" x="0px" y="0px"
	 viewBox="0 0 100 100" style="enable-background:new 0 0 100 100;" xml:space="preserve">
<style type="text/css">
	.st0{fill:none;stroke:#FFFFFF;stroke-width:5;stroke-linecap:round;stroke-miterlimit:10;}
</style>
<g>
	<g>
		<path class="st0" d="M50,94.3c3.7-2.2,8.8-5.6,13.9-10.6c3.1-3,9.4-9.4,13.9-19.5c2.7-6.1,7.9-17.7,4.4-31.6
			C81.4,29,78.1,16.2,66,9.5C60,6.2,54.1,5.7,50.7,5.7"/>
		<path class="st0" d="M50,94.3c-3.7-2.2-8.8-5.6-13.9-10.6c-3.1-3-9.4-9.4-13.9-19.5c-2.7-6.1-7.9-17.7-4.4-31.6
			c0.9-3.5,4.1-16.3,16.2-23C40,6.2,45.9,5.7,49.3,5.7"/>
		<line class="st0" x1="49.2" y1="5.7" x2="50.7" y2="5.7"/>
	</g>
	<path class="st0" d="M31.2,69.6"/>
	<path class="st0" d="M45,67.2"/>
	<path class="st0" d="M49.2,75.2"/>
	<g>
		<path class="st0" d="M50.1,42.9c1.1,0.9,3.4,3.3,4.6,5.3c0.7,1.1,3.3,5.9,3.1,12.6c-0.1,2.5-0.4,10.9-5.8,13.9
			c-0.8,0.4-1.6,0.5-2,0.5"/>
		<path class="st0" d="M50.1,42.9c-1.1,0.9-3.4,3.3-4.6,5.3c-0.7,1.1-3.3,5.9-3.1,12.6c0.1,2.5,0.4,10.9,5.8,13.9
			c0.8,0.4,1.6,0.5,2,0.5"/>
	</g>
</g>
</svg>
