<?xml version="1.0" encoding="utf-8"?>
<!-- Generator: Adobe Illustrator 23.0.1, SVG Export Plug-In . SVG Version: 6.00 Build 0)  -->
<svg version="1.1" id="katman_1" xmlns="http://www.w3.org/2000/svg" xmlns:xlink="http://www.w3.org/1999/xlink" x="0px" y="0px"
	 viewBox="0 0 100 100" style="enable-background:new 0 0 100 100;" xml:space="preserve">
<style type="text/css">
	.st0{fill:none;stroke:#FFFFFF;stroke-width:5;stroke-linecap:round;stroke-miterlimit:10;}
	.st1{fill:none;stroke:#FFFFFF;stroke-width:5;stroke-miterlimit:10;}
</style>
<g>
	<line class="st0" x1="40.3" y1="62.3" x2="40.3" y2="37.7"/>
	<line class="st0" x1="59.7" y1="37.7" x2="59.7" y2="62.3"/>
	<path class="st0" d="M59.7,62.3c0,2.6-4.3,4.6-9.7,4.6"/>
	<path class="st0" d="M40.3,62.3c0,2.6,4.5,4.6,10,4.6"/>
	<path class="st0" d="M59.7,37.7c0-2.6-4.3-4.6-9.7-4.6"/>
	<path class="st0" d="M40.3,37.7c0-2.6,4.5-4.6,10-4.6"/>
	<path class="st1" d="M59.7,60.6L87.4,73c2.9,1.3,6.1-0.8,6.1-3.9V30.9c0-3.1-3.2-5.2-6.1-3.9L59.7,39.4"/>
	<path class="st1" d="M40.3,60.6L12.6,73c-2.9,1.3-6.1-0.8-6.1-3.9V30.9c0-3.1,3.2-5.2,6.1-3.9l27.7,12.5"/>
</g>
<g>
</g>
<g>
</g>
<g>
</g>
<g>
</g>
<g>
</g>
</svg>
