<?xml version="1.0" encoding="utf-8"?>
<!-- Generator: Adobe Illustrator 23.0.1, SVG Export Plug-In . SVG Version: 6.00 Build 0)  -->
<svg version="1.1" id="katman_1" xmlns="http://www.w3.org/2000/svg" xmlns:xlink="http://www.w3.org/1999/xlink" x="0px" y="0px"
	 viewBox="0 0 100 100" style="enable-background:new 0 0 100 100;" xml:space="preserve">
<style type="text/css">
	.st0{fill:none;stroke:#FFFFFF;stroke-width:4;stroke-linecap:round;stroke-miterlimit:10;}
</style>
<g>
	<path class="st0" d="M54.9,11.7c0.7,7.7,0.4,14.1-0.1,18.7c-1.2,11.7-4.3,19.2-6.9,25.8c0,0-2.6,6.4-9.1,12.7
		c-0.3,0.3-1.1,1-2.2,1.3c-0.9,0.2-1.4,0.1-2.4,0c-1-0.1-2.8-0.2-4.3,0.4c-2,0.8-3,2.5-3.2,2.9c-1.3,2.5-0.5,4.9-0.4,5.3
		c0.2,0.5,0.8,2.1,2.5,3.3c2,1.4,4.2,1.2,5.7,1c1-0.1,4.3-0.4,6.8-2.9c2-1.9,1.2-2.9,4.1-6.7c1.2-1.6,1.9-2.5,3.2-3.2
		c2.2-1.2,4.2-1.8,4.2-1.8c0.5-0.1,1.2-0.3,1.9-0.9c0.8-0.7,1-1.5,1.1-1.7c1.4-4.1,4.6-7.3,6.9-11c2-3.2,5.8-7.1,13.3-14.8
		c3.1-3.2,7.3-7.4,12.5-12.4"/>
	<path class="st0" d="M54.9,11.7c1.3,3.7,3.3,9.7,3.9,15c1.5,13.5-2,24.5-4.5,30.6"/>
	<path class="st0" d="M88.5,27.7C79.2,33.2,67.3,42,58.4,52.6c-1.2,1.5-3,3.2-4.1,4.7"/>
	<path class="st0" d="M26.3,78.8c-0.8,0.5-4,2.5-3.7,3.5c0.4,1.3,7.1,0.5,7.4,0.4"/>
	<path class="st0" d="M27.3,72.5c-3.1-2.4-7.7-6.8-10.2-12.8c-0.9-2-1.2-3.5-1.5-4.5C14.3,50.7,11.4,44,3.9,35.5"/>
	<path class="st0" d="M45,61.4c-5.6-2.2-13.3-5.7-20.2-10c-8.2-5.2-16-11.2-20.9-16"/>
	<path class="st0" d="M41.8,79.6c11.3,9.2,20.5,9.2,25.8,8.4c3.9-0.6,5.8-1.7,16.3-4.8c5-1.5,9.5-1.5,12.2-2.1"/>
	<path class="st0" d="M54.8,67.5c4.5,2.1,9.9,4.4,15.3,6.3c9.2,3.4,18.4,5.8,26,7.3"/>
	<path class="st0" d="M60.4,70c1.5-7.9,4.2-17.5,10.5-24.7"/>
</g>
<g>
</g>
<g>
</g>
<g>
</g>
<g>
</g>
<g>
</g>
</svg>
