<?xml version="1.0" encoding="utf-8"?>
<!-- Generator: Adobe Illustrator 23.0.1, SVG Export Plug-In . SVG Version: 6.00 Build 0)  -->
<svg version="1.1" id="katman_1" xmlns="http://www.w3.org/2000/svg" xmlns:xlink="http://www.w3.org/1999/xlink" x="0px" y="0px"
	 viewBox="0 0 100 100" style="enable-background:new 0 0 100 100;" xml:space="preserve">
<style type="text/css">
	.st0{fill:#FFFFFF;stroke:#FFFFFF;stroke-width:5;stroke-miterlimit:10;}
	.st1{fill:#FFFFFF;stroke:#FFFFFF;stroke-width:5;stroke-linecap:round;stroke-miterlimit:10;}
	.st2{fill:none;stroke:#FFFFFF;stroke-width:5;stroke-linecap:round;stroke-miterlimit:10;}
</style>
<path class="st0" d="M84.8,75.9H15.6c-6.6,0-12-5.4-12-12V30.8c0-6.6,5.4-12,12-12h69.1c6.6,0,12,5.4,12,12v33.2
	C96.8,70.5,91.4,75.9,84.8,75.9z"/>
<g>
	<path class="st1" d="M36.6,56.2c-3.8,6.7,4.2,13.4,11.9,13.4"/>
	<path class="st1" d="M47.7,40.3l-11,15.8"/>
	<path class="st1" d="M50.2,39.1c-1,0-1.9,0.4-2.5,1.3"/>
	<path class="st1" d="M63.8,56.2c3.8,6.7-4.2,13.4-11.9,13.4"/>
	<path class="st1" d="M52.7,40.3l11,15.8"/>
	<path class="st1" d="M50.2,39.1c1,0,1.9,0.4,2.5,1.3"/>
	<line class="st2" x1="48.6" y1="69.6" x2="51.8" y2="69.6"/>
</g>
<g>
	<path class="st1" d="M61.6,38.5c-3.8-6.7,4.2-13.4,11.9-13.4"/>
	<path class="st1" d="M72.7,54.3l-11-15.8"/>
	<path class="st1" d="M75.2,55.6c-1,0-1.9-0.4-2.5-1.3"/>
	<path class="st1" d="M88.8,38.5c3.8-6.7-4.2-13.4-11.9-13.4"/>
	<path class="st1" d="M77.7,54.3l11-15.8"/>
	<path class="st1" d="M75.2,55.6c1,0,1.9-0.4,2.5-1.3"/>
	<line class="st2" x1="73.6" y1="25.1" x2="76.8" y2="25.1"/>
</g>
<g>
	<path class="st1" d="M11.6,38.5c-3.8-6.7,4.2-13.4,11.9-13.4"/>
	<path class="st1" d="M22.7,54.3l-11-15.8"/>
	<path class="st1" d="M25.2,55.6c-1,0-1.9-0.4-2.5-1.3"/>
	<path class="st1" d="M38.8,38.5c3.8-6.7-4.2-13.4-11.9-13.4"/>
	<path class="st1" d="M27.7,54.3l11-15.8"/>
	<path class="st1" d="M25.2,55.6c1,0,1.9-0.4,2.5-1.3"/>
	<line class="st2" x1="23.6" y1="25.1" x2="26.8" y2="25.1"/>
</g>
<g>
</g>
<g>
</g>
<g>
</g>
<g>
</g>
<g>
</g>
</svg>
