<?xml version="1.0" encoding="utf-8"?>
<!-- Generator: Adobe Illustrator 23.0.1, SVG Export Plug-In . SVG Version: 6.00 Build 0)  -->
<svg version="1.1" id="katman_1" xmlns="http://www.w3.org/2000/svg" xmlns:xlink="http://www.w3.org/1999/xlink" x="0px" y="0px"
	 viewBox="0 0 100 100" style="enable-background:new 0 0 100 100;" xml:space="preserve">
<style type="text/css">
	.st0{fill:#FFFFFF;}
</style>
<path class="st0" d="M59.4,35.9h9.4v9.4h-9.4V35.9z M68.8,26.6h9.4V36h-9.4V26.6z M78.1,17.2h9.4v9.4h-9.4V17.2z M77.1,74.5v7.4
	h-7.4v-7.4H77.1 M78.1,73.5h-9.4v9.4h9.4V73.5L78.1,73.5z M20.9,74.5v7.4h-7.4v-7.4H20.9 M21.9,73.5h-9.4v9.4h9.4V73.5L21.9,73.5z
	 M12.5,54.7h65.6v18.8H12.5V54.7z M21.9,45.3h46.9v9.4H21.9V45.3z M21.9,73.5h46.8v9.4H21.9V73.5z"/>
</svg>
