<?xml version="1.0" encoding="utf-8"?>
<!-- Generator: Adobe Illustrator 23.0.1, SVG Export Plug-In . SVG Version: 6.00 Build 0)  -->
<svg version="1.1" id="katman_1" xmlns="http://www.w3.org/2000/svg" xmlns:xlink="http://www.w3.org/1999/xlink" x="0px" y="0px"
	 viewBox="0 0 100 100" style="enable-background:new 0 0 100 100;" xml:space="preserve">
<style type="text/css">
	.st0{fill:none;stroke:#FFFFFF;stroke-width:5;stroke-miterlimit:10;}
	.st1{fill:none;stroke:#FFFFFF;stroke-width:4;stroke-miterlimit:10;}
	.st2{fill:none;stroke:#FFFFFF;stroke-width:4;stroke-linecap:round;stroke-linejoin:round;}
</style>
<g>
	<circle class="st0" cx="25" cy="76.6" r="10"/>
	<circle class="st0" cx="75" cy="76.6" r="10"/>
	<rect x="14.6" y="52.5" class="st0" width="70.4" height="9"/>
	<path class="st0" d="M22.5,52.5c0-1.4,1.1-2.5,2.5-2.5s2.5,1.1,2.5,2.5"/>
	<path class="st0" d="M35,52.5c0-1.4,1.1-2.5,2.5-2.5s2.5,1.1,2.5,2.5"/>
	<path class="st0" d="M72.5,52.5c0-1.4,1.1-2.5,2.5-2.5s2.5,1.1,2.5,2.5"/>
	<line class="st0" x1="65" y1="76.6" x2="35" y2="76.6"/>
	<path class="st0" d="M65,76.6"/>
	<polyline class="st0" points="15,76.6 10,76.6 10,61.6 90,61.6 90,76.6 85,76.6 	"/>
</g>
<g>
	<g id="a">
		<g>
			<path class="st1" d="M54.6,5.1c-0.9-0.9-2.3-0.9-3.2,0c-12.1,12.5-14,20.4-11.7,26.1c2.4,5.8,9.3,9.4,13.3,9.3
				c4,0.1,11-3.5,13.3-9.3C68.7,25.4,66.7,17.6,54.6,5.1z"/>
			<path class="st2" d="M54.6,5.1c-0.9-0.9-2.3-0.9-3.2,0c-12.1,12.5-14,20.4-11.7,26.1c2.4,5.8,9.3,9.4,13.3,9.3
				c4,0.1,11-3.5,13.3-9.3C68.7,25.4,66.7,17.6,54.6,5.1z"/>
			<line class="st2" x1="53" y1="45.2" x2="53" y2="16.6"/>
			<path class="st2" d="M60.5,29.2c-3.3,0.7-5.9,2.4-7.4,4.5"/>
			<path class="st2" d="M46.6,25.4c2.8,0.6,5,2,6.3,3.8"/>
			<path class="st2" d="M57.1,20.7c-1.8,0.4-3.2,1.3-4,2.4"/>
		</g>
	</g>
</g>
</svg>
