<?xml version="1.0" encoding="utf-8"?>
<!-- Generator: Adobe Illustrator 23.0.1, SVG Export Plug-In . SVG Version: 6.00 Build 0)  -->
<svg version="1.1" id="katman_1" xmlns="http://www.w3.org/2000/svg" xmlns:xlink="http://www.w3.org/1999/xlink" x="0px" y="0px"
	 viewBox="0 0 100 100" style="enable-background:new 0 0 100 100;" xml:space="preserve">
<style type="text/css">
	.st0{fill:none;stroke:#FFFFFF;stroke-width:4;stroke-miterlimit:10;}
	.st1{fill:none;stroke:#FFFFFF;stroke-width:4;stroke-linecap:round;stroke-miterlimit:10;}
	.st2{fill:none;stroke:#FFFFFF;stroke-width:3;stroke-linecap:square;stroke-miterlimit:10;}
	.st3{fill:none;stroke:#FFFFFF;stroke-width:2;stroke-linecap:square;stroke-miterlimit:10;}
</style>
<ellipse class="st0" cx="25.4" cy="72.1" rx="8.4" ry="8.9"/>
<path class="st0" d="M46.4,32.3c0,10.5-1.7,19.1-3.9,19.1"/>
<ellipse class="st0" cx="89.7" cy="72" rx="8.4" ry="8.9"/>
<line class="st0" x1="33.8" y1="72" x2="81.3" y2="72"/>
<path class="st0" d="M46.4,32.3c0-10.5-1.7-19.1-3.9-19.1"/>
<line class="st1" x1="46.4" y1="32.3" x2="47.7" y2="32.3"/>
<line class="st2" x1="35.3" y1="71.2" x2="35.3" y2="33.5"/>
<line class="st2" x1="29.2" y1="33.1" x2="29.2" y2="63.2"/>
<line class="st2" x1="24" y1="32.3" x2="43" y2="32.3"/>
<line class="st3" x1="24.4" y1="28.7" x2="24.4" y2="61.8"/>
<path class="st2" d="M2.8,19.6c1.3-0.9,3.2-1.9,5.5-1.6c2.2,0.3,3.1,1.6,5.2,1.9c1.4,0.2,3.5,0,6.3-2.2"/>
<path class="st2" d="M2,47.3c1.3-0.9,3.2-1.9,5.5-1.6c2.2,0.3,3.1,1.6,5.2,1.9c1.4,0.2,3.5,0,6.3-2.2"/>
<path class="st2" d="M2.3,33.3c1.3-0.9,3.2-1.9,5.5-1.6c2.2,0.3,3.1,1.6,5.2,1.9c1.4,0.2,3.5,0,6.3-2.2"/>
<g>
</g>
<g>
</g>
<g>
</g>
<g>
</g>
<g>
</g>
</svg>
