<?xml version="1.0" encoding="utf-8"?>
<!-- Generator: Adobe Illustrator 23.0.1, SVG Export Plug-In . SVG Version: 6.00 Build 0)  -->
<svg version="1.1" id="katman_1" xmlns="http://www.w3.org/2000/svg" xmlns:xlink="http://www.w3.org/1999/xlink" x="0px" y="0px"
	 viewBox="0 0 100 100" style="enable-background:new 0 0 100 100;" xml:space="preserve">
<style type="text/css">
	.st0{fill:#FFFFFF;}
</style>
<g>
	<path class="st0" d="M67.5,63.6c-15.3-7.1-36.7-3.9-37.6-3.8c-2,0.3-3.4,2.2-3.1,4.2s2.2,3.4,4.2,3.1c0.2,0,20.1-2.9,33.4,3.2
		c0.5,0.2,1,0.3,1.5,0.3c1.4,0,2.7-0.8,3.4-2.1C70.1,66.6,69.3,64.4,67.5,63.6z"/>
	<path class="st0" d="M71.8,50.3C54.4,42.3,30,45.8,29,46c-2,0.3-3.4,2.2-3.1,4.2s2.2,3.4,4.2,3.1c0.2,0,23.2-3.4,38.6,3.7
		c0.5,0.2,1,0.3,1.5,0.3c1.4,0,2.7-0.8,3.4-2.1C74.4,53.3,73.6,51.1,71.8,50.3z"/>
	<path class="st0" d="M74.7,36.4c-19.2-8.9-46.2-4.9-47.3-4.8c-2,0.3-3.4,2.2-3.1,4.2s2.2,3.4,4.2,3.1c0.3,0,25.9-3.8,43.1,4.2
		c0.5,0.2,1,0.3,1.5,0.3c1.4,0,2.7-0.8,3.4-2.1C77.3,39.4,76.5,37.2,74.7,36.4z"/>
	<path class="st0" d="M50,4C24.6,4,4,24.6,4,50s20.6,46,46,46s46-20.6,46-46S75.4,4,50,4z M50,88.6c-21.3,0-38.6-17.3-38.6-38.6
		S28.7,11.4,50,11.4S88.6,28.7,88.6,50S71.3,88.6,50,88.6z"/>
</g>
</svg>
