<?xml version="1.0" encoding="utf-8"?>
<!-- Generator: Adobe Illustrator 23.0.1, SVG Export Plug-In . SVG Version: 6.00 Build 0)  -->
<svg version="1.1" id="katman_1" dsy:text-version="20000" xmlns:dsy="http://www.3ds.com/print"
	 xmlns="http://www.w3.org/2000/svg" xmlns:xlink="http://www.w3.org/1999/xlink" x="0px" y="0px" viewBox="0 0 841 1189"
	 style="enable-background:new 0 0 841 1189;" xml:space="preserve">
<style type="text/css">
	.st0{fill:#020202;}
	.st1{fill:none;stroke:#000000;stroke-width:22;stroke-linecap:round;}
</style>
<g>
	<g id="XMLID_1_">
		<g>
			<path class="st0" d="M357,785.7L357,785.7c116.4-16.8,205.7-111.8,215.4-229v-0.1c3.5-42.7-28.3-80.2-71-83.7
				c-19.3-1.6-38.5,4.1-53.9,16c-53.8,41.7-106.6,84.5-158.6,128.3l0.1,0.1c-8.3,7.4-15.9,15.4-22.9,24.1l-0.1,0
				c-28.6,42.9-17.1,100.8,25.8,129.5C311,783.7,334.2,789,357,785.7z M536.2,360c0.9-0.7,1.9-1.4,2.8-2.1l2-1.5l269.7-196
				l-26.3,80.9v0.1L575.7,392.9l-0.1,0.1c25.5,27,43.5,60.2,52.3,96.3c6.2,25.4,8.2,51.6,6.1,77.6h0.1
				c-6.1,73-37.7,141.5-89.5,193.3l-299.9,300.4l0-0.1c-31.1,31.2-70.3,53-113.2,62.9l13.8-48.7l179.9-183
				c9.4-9.5,9.2-24.9-0.3-34.2c-4.2-4.1-9.8-6.6-15.7-6.9v0c-31.8-1.7-63-8.3-92.7-19.5c-30.9-11.7-50.7-42.3-48.6-75.3
				c4.3-68.5,36.4-132.4,88.9-176.7V579c55.5-46.9,112.1-92.5,169.6-136.9c11.8-9.1,14-26.1,4.9-37.9c-3.5-4.5-8.3-7.8-13.7-9.4
				c-50.4-14.9-104.5-10.4-151.7,12.6l-144.4,70.3c-19.9,7.9-37.1,21.4-49.4,38.9L22.8,508l8.7-49.2v-0.1L570.8,66.9l-26.3,80.9
				L341.4,295.4c-8.2,5.9-10,17.4-4,25.5c0.3,0.4,0.6,0.8,1,1.1l-0.1,0.1c7.4,8.5,19,12.2,30,9.5C425.8,317.5,486.5,327.8,536.2,360
				L536.2,360z"/>
		</g>
		<g>
			<line class="st1" x1="810.6" y1="160.4" x2="540.9" y2="356.4"/>
			<line class="st1" x1="538.9" y1="357.9" x2="540.9" y2="356.4"/>
			<path class="st1" d="M538.9,357.9c-0.9,0.7-1.9,1.4-2.8,2.1c0,0,0,0-0.1,0"/>
			<path class="st1" d="M536.1,359.9c-49.6-32.1-110.3-42.4-167.8-28.3"/>
			<path class="st1" d="M338.3,322.1c7.4,8.5,19,12.2,30,9.5"/>
			<path class="st1" d="M341.4,295.4c-8.2,5.9-10,17.4-4,25.5c0.3,0.4,0.6,0.8,1,1.1c0,0,0,0,0,0.1"/>
			<line class="st1" x1="544.5" y1="147.8" x2="341.4" y2="295.4"/>
			<line class="st1" x1="570.8" y1="66.9" x2="544.5" y2="147.8"/>
			<line class="st1" x1="570.8" y1="66.9" x2="31.5" y2="458.7"/>
			<line class="st1" x1="22.8" y1="508" x2="31.5" y2="458.8"/>
			<line class="st1" x1="72" y1="516.6" x2="22.8" y2="508"/>
			<path class="st1" d="M121.4,477.7c-19.9,7.9-37.1,21.4-49.4,38.9"/>
			<line class="st1" x1="121.4" y1="477.7" x2="265.8" y2="407.4"/>
			<path class="st1" d="M417.5,394.8c-50.4-14.9-104.5-10.4-151.7,12.6"/>
			<path class="st1" d="M426.3,442.1c11.8-9.1,14-26.1,4.9-37.9c-3.5-4.5-8.3-7.8-13.7-9.4"/>
			<path class="st1" d="M426.3,442.1c-57.5,44.4-114.1,90-169.6,136.9"/>
			<path class="st1" d="M256.7,579.1c-52.5,44.3-84.6,108.2-88.9,176.7"/>
			<path class="st1" d="M167.8,755.8c-2.1,33,17.7,63.6,48.6,75.3"/>
			<path class="st1" d="M216.4,831.1c29.7,11.2,60.9,17.8,92.7,19.5c0,0,0.1,0,0.1,0"/>
			<path class="st1" d="M325.1,891.7c9.4-9.5,9.2-24.9-0.3-34.2c-4.2-4.1-9.8-6.6-15.7-6.9"/>
			<line class="st1" x1="145.2" y1="1074.7" x2="325.1" y2="891.7"/>
			<line class="st1" x1="131.4" y1="1123.4" x2="145.2" y2="1074.7"/>
			<path class="st1" d="M131.4,1123.4c42.9-9.9,82.1-31.7,113.2-62.9"/>
			<polyline class="st1" points="244.6,1060.6 244.6,1060.6 544.6,760.2 			"/>
			<path class="st1" d="M544.6,760.2c51.8-51.8,83.4-120.3,89.5-193.3"/>
			<path class="st1" d="M634,566.9c2.1-26,0.1-52.2-6.1-77.6"/>
			<path class="st1" d="M627.9,489.3c-8.8-36.1-26.8-69.3-52.3-96.3"/>
			<line class="st1" x1="784.3" y1="241.4" x2="575.7" y2="392.9"/>
			<line class="st1" x1="810.6" y1="160.4" x2="784.3" y2="241.3"/>
			<path class="st1" d="M447.5,488.9c-53.8,41.7-106.6,84.5-158.6,128.3"/>
			<path class="st1" d="M572.4,556.6c3.5-42.7-28.3-80.2-71-83.7c-19.3-1.6-38.5,4.1-53.9,16"/>
			<path class="st1" d="M357,785.7c116.4-16.8,205.7-111.8,215.4-229"/>
			<path class="st1" d="M266.1,641.3C266.1,641.3,266.1,641.3,266.1,641.3c-28.7,43-17.2,100.9,25.7,129.6
				c19.2,12.8,42.4,18.1,65.2,14.8c0,0,0.1,0,0.1,0"/>
			<path class="st1" d="M289,617.3c-8.3,7.4-15.9,15.4-22.9,24.1"/>
		</g>
	</g>
</g>
</svg>
