<?xml version="1.0" encoding="utf-8"?>
<!-- Generator: Adobe Illustrator 23.0.1, SVG Export Plug-In . SVG Version: 6.00 Build 0)  -->
<svg version="1.1" id="katman_1" xmlns="http://www.w3.org/2000/svg" xmlns:xlink="http://www.w3.org/1999/xlink" x="0px" y="0px"
	 viewBox="0 0 100 100" style="enable-background:new 0 0 100 100;" xml:space="preserve">
<style type="text/css">
	.st0{fill:#FFFFFF;}
	.st1{fill:none;stroke:#FFFFFF;stroke-width:3;stroke-linecap:round;stroke-miterlimit:10;}
	.st2{fill:none;stroke:#FFFFFF;stroke-width:2;stroke-linecap:round;stroke-miterlimit:10;}
</style>
<g>
	<g id="XMLID_2_">
		<g>
			<polygon class="st0" points="59.3,68.7 59.3,75.7 50,73.6 40.7,75.7 40.7,68.7 50,69.3 			"/>
			<path class="st0" d="M59.3,50.3c-0.7,0-1.7,0-2.8,0.3c-2.9,0.7-5,2.7-5.6,3.3c-0.3,0.2-0.5,0.4-0.6,0.6h-0.6
				c-0.2-0.2-0.4-0.4-0.6-0.6c-0.6-0.6-2.7-2.6-5.6-3.3c-1.1-0.3-2.1-0.3-2.8-0.3c0,0-0.1,0-0.1,0c-0.2,0-0.4,0-0.6,0
				c-3.7,0.3-17.6,0.4-38,0.4v-0.1l0.1-5.2c22.4-1.5,35.9-2.3,37.4-2.3c0.1,0,0.4-0.1,0.9-0.2c0.8-0.2,1.6-0.6,2.8-1.9
				c1.3-1.3,1.9-2,2.3-2.9c0.5-1.2,0.4-2,0.4-3.6c0.1-3.3,0.5-5.2,0.5-5.7c0.4-2.7,0.9-3.7,1.5-4.5c0.6-0.7,1.5-1,2-1.3h0.2
				c0.4,0.3,1.4,0.6,2,1.3c0.6,0.8,1.1,1.8,1.5,4.5c0,0.5,0.4,2.4,0.5,5.7c0,1.6-0.1,2.4,0.4,3.6c0.4,0.9,1,1.6,2.3,2.9
				c1.2,1.3,2,1.7,2.8,1.9c0.5,0.1,0.8,0.2,0.9,0.2c1.5,0,15,0.8,37.4,2.3l0.1,5.2v0.1c-20.3,0-34.3-0.1-38-0.4c-0.2,0-0.4,0-0.6,0
				C59.4,50.3,59.3,50.3,59.3,50.3z"/>
		</g>
		<g>
			<path class="st1" d="M50,54.8c0.1-0.1,0.2-0.2,0.3-0.3c0.2-0.2,0.4-0.4,0.6-0.6c0.6-0.6,2.7-2.6,5.6-3.3c1.1-0.3,2.1-0.3,2.8-0.3
				c0,0,0.1,0,0.1,0c0.2,0,0.4,0,0.6,0c3.7,0.3,17.7,0.4,38,0.4c0,0,0.1,0,0.1,0"/>
			<path class="st1" d="M97.9,45.4c-22.4-1.5-35.9-2.3-37.4-2.3c-0.1,0-0.4-0.1-0.9-0.2c-0.8-0.2-1.6-0.6-2.8-1.9
				c-1.3-1.3-1.9-2-2.3-2.9c-0.5-1.2-0.4-2-0.4-3.6c-0.1-3.3-0.5-5.2-0.5-5.7c-0.4-2.7-0.9-3.7-1.5-4.5c-0.6-0.7-1.6-1-2-1.3"/>
			<line class="st1" x1="98" y1="50.6" x2="97.9" y2="45.4"/>
			<polyline class="st2" points="59.3,50.2 59.3,50.3 59.3,68.7 59.3,75.7 			"/>
			<line class="st2" x1="50" y1="69.3" x2="59.3" y2="68.7"/>
			<line class="st2" x1="59.3" y1="75.7" x2="50" y2="73.6"/>
			<path class="st1" d="M50,54.8c-0.1-0.1-0.2-0.2-0.3-0.3c-0.2-0.2-0.4-0.4-0.6-0.6c-0.6-0.6-2.7-2.6-5.6-3.3
				c-1.1-0.3-2.1-0.3-2.8-0.3c0,0-0.1,0-0.1,0c-0.2,0-0.4,0-0.6,0c-3.7,0.3-17.6,0.4-38,0.4c0,0-0.1,0-0.1,0"/>
			<path class="st1" d="M2.1,45.4c22.4-1.5,35.9-2.3,37.4-2.3c0.1,0,0.4-0.1,0.9-0.2c0.8-0.2,1.6-0.6,2.8-1.9c1.3-1.3,1.9-2,2.3-2.9
				c0.5-1.2,0.4-2,0.4-3.6c0.1-3.3,0.5-5.2,0.5-5.7c0.4-2.7,0.9-3.7,1.5-4.5c0.6-0.7,1.5-1,2-1.3"/>
			<line class="st1" x1="2" y1="50.6" x2="2.1" y2="45.4"/>
			<polyline class="st2" points="40.7,50.2 40.7,50.3 40.7,68.7 40.7,75.7 			"/>
			<line class="st2" x1="50" y1="69.3" x2="40.7" y2="68.7"/>
			<line class="st2" x1="40.7" y1="75.7" x2="50" y2="73.6"/>
			<polyline class="st2" points="45.1,54.5 49.7,54.5 50.3,54.5 54.9,54.5 			"/>
		</g>
	</g>
</g>
</svg>
