<?xml version="1.0" encoding="utf-8"?>
<!-- Generator: Adobe Illustrator 23.0.1, SVG Export Plug-In . SVG Version: 6.00 Build 0)  -->
<svg version="1.1" id="katman_1" xmlns="http://www.w3.org/2000/svg" xmlns:xlink="http://www.w3.org/1999/xlink" x="0px" y="0px"
	 viewBox="0 0 100 100" style="enable-background:new 0 0 100 100;" xml:space="preserve">
<style type="text/css">
	.st0{fill:none;stroke:#FFFFFF;stroke-width:3;stroke-linecap:round;stroke-miterlimit:10;}
	.st1{fill:none;stroke:#FFFFFF;stroke-width:2;stroke-linecap:round;stroke-miterlimit:10;}
</style>
<g>
	<g>
		<g>
			<g id="XMLID_1_">
				<g>
				</g>
				<g>
					<path class="st0" d="M50,54.8c0.2-0.2,0.5-0.6,0.9-0.9c0.6-0.6,2.7-2.6,5.6-3.3c1.2-0.3,2.2-0.3,2.9-0.3c0.2,0,0.4,0,0.6,0
						c3.7,0.3,17.7,0.4,38.1,0.4"/>
					<path class="st0" d="M97.9,45.4c-22.4-1.5-35.9-2.3-37.4-2.3c-0.1,0-0.4-0.1-0.9-0.2c-0.8-0.2-1.6-0.6-2.8-1.9
						c-1.3-1.3-1.9-2-2.3-2.9c-0.5-1.2-0.4-2-0.4-3.6c-0.1-3.3-0.5-5.2-0.5-5.7c-0.4-2.7-0.9-3.7-1.5-4.5c-0.6-0.7-1.6-1-2-1.3"/>
					<line class="st0" x1="98" y1="50.6" x2="97.9" y2="45.4"/>
					<polyline class="st1" points="59.3,50.2 59.3,68.7 59.3,75.7 					"/>
					<line class="st1" x1="50" y1="69.3" x2="59.3" y2="68.7"/>
					<line class="st1" x1="59.3" y1="75.7" x2="50" y2="73.6"/>
					<path class="st0" d="M50,54.8c-0.2-0.2-0.5-0.6-0.9-0.9c-0.6-0.6-2.7-2.6-5.6-3.3c-1.2-0.3-2.2-0.3-2.9-0.3c-0.2,0-0.4,0-0.6,0
						c-3.7,0.3-17.7,0.4-38.1,0.4"/>
					<path class="st0" d="M2.1,45.4c22.4-1.5,35.9-2.3,37.4-2.3c0.1,0,0.4-0.1,0.9-0.2c0.8-0.2,1.6-0.6,2.8-1.9
						c1.3-1.3,1.9-2,2.3-2.9c0.5-1.2,0.4-2,0.4-3.6c0.1-3.3,0.5-5.2,0.5-5.7c0.4-2.7,0.9-3.7,1.5-4.5c0.6-0.7,1.5-1,2-1.3"/>
					<line class="st0" x1="2" y1="50.6" x2="2.1" y2="45.4"/>
					<polyline class="st1" points="40.7,50.2 40.7,68.7 40.7,75.7 					"/>
					<line class="st1" x1="50" y1="69.3" x2="40.7" y2="68.7"/>
					<polyline class="st1" points="40.7,75.7 50,73.6 50,73.6 					"/>
				</g>
			</g>
		</g>
	</g>
	<line class="st1" x1="45.1" y1="54.5" x2="54.9" y2="54.5"/>
</g>
<g>
</g>
<g>
</g>
<g>
</g>
<g>
</g>
<g>
</g>
</svg>
