<?xml version="1.0" encoding="utf-8"?>
<!-- Generator: Adobe Illustrator 23.0.1, SVG Export Plug-In . SVG Version: 6.00 Build 0)  -->
<svg version="1.1" id="katman_1" xmlns="http://www.w3.org/2000/svg" xmlns:xlink="http://www.w3.org/1999/xlink" x="0px" y="0px"
	 viewBox="0 0 100 100" style="enable-background:new 0 0 100 100;" xml:space="preserve">
<style type="text/css">
	.st0{fill:#FFFFFF;}
</style>
<g>
	<g id="XMLID_1_">
		<g>
			<g>
				<path class="st0" d="M29,34.1c0-2.9,2.3-5.1,5.1-5.1s5.1,2.3,5.1,5.1c0,2.9-2.3,5.1-5.1,5.1C31.3,39.4,29,37,29,34.1z"/>
				<path class="st0" d="M71,53.3V71h-8.7V56.3c0-4-1.5-6.3-4.8-6.3c-3.5,0-5.3,2.3-5.3,6.3V71h-8.3V43h8.3v3.7c0,0,2.5-4.7,8.4-4.7
					C66.7,42.2,71,45.8,71,53.3z"/>
				<rect x="29.8" y="43" class="st0" width="8.7" height="28"/>
			</g>
			<g>
				<g>
					<path class="st0" d="M78,22v56H22V22H78 M78,14H22c-4.4,0-8,3.6-8,8v56c0,4.4,3.6,8,8,8h56c4.4,0,8-3.6,8-8V22
						C86,17.6,82.4,14,78,14L78,14z"/>
				</g>
			</g>
		</g>
	</g>
</g>
</svg>
