<?xml version="1.0" encoding="utf-8"?>
<!-- Generator: Adobe Illustrator 23.0.1, SVG Export Plug-In . SVG Version: 6.00 Build 0)  -->
<svg version="1.1" id="katman_1" xmlns:dsy="http://www.3ds.com/print"
	 xmlns="http://www.w3.org/2000/svg" xmlns:xlink="http://www.w3.org/1999/xlink" x="0px" y="0px" viewBox="0 0 811.1 1079.4"
	 style="enable-background:new 0 0 811.1 1079.4;" xml:space="preserve">
<style type="text/css">
	.st0{fill:#646464;}
	.st1{fill:#805A33;}
	.st2{fill:none;stroke:#805933;stroke-width:22;stroke-linecap:round;}
</style>
<g id="XMLID_1_">
	<g>
		<g id="XMLID_3_">
			<g>
				<polygon class="st0" points="533.6,704.8 233.7,1005.2 233.7,1005.1 				"/>
				<path class="st0" d="M495.5,651.5c1.2-1.3,2.3-2.6,3.5-3.9C497.8,649,496.7,650.3,495.5,651.5z"/>
				<path class="st0" d="M486.4,660.9c0.6-0.6,1.2-1.2,1.9-1.8C487.7,659.7,487,660.3,486.4,660.9z"/>
				<path class="st0" d="M482.6,664.5c1.3-1.2,2.5-2.4,3.8-3.6C485.2,662.1,483.9,663.3,482.6,664.5z"/>
				<path class="st0" d="M476.9,669.8c2-1.7,3.9-3.5,5.8-5.3C480.8,666.3,478.8,668,476.9,669.8z"/>
				<path class="st0" d="M470.9,674.9c2-1.7,4-3.4,5.9-5.1C474.9,671.5,472.9,673.2,470.9,674.9z"/>
				<path class="st0" d="M466.9,678.2c1.4-1.1,2.7-2.2,4.1-3.3C469.6,676,468.2,677.1,466.9,678.2z"/>
				<path class="st0" d="M462.8,681.4c1.4-1.1,2.8-2.1,4.1-3.2C465.5,679.2,464.1,680.3,462.8,681.4z"/>
				<path class="st0" d="M456.4,686c2.1-1.5,4.2-3.1,6.3-4.7C460.7,683,458.6,684.5,456.4,686z"/>
				<path class="st0" d="M450,690.5c1.5-1,2.9-2,4.3-2.9C452.9,688.5,451.4,689.5,450,690.5z"/>
				<path class="st0" d="M445.6,693.3c1.5-0.9,2.9-1.9,4.4-2.9C448.5,691.5,447,692.4,445.6,693.3z"/>
				<path class="st0" d="M438.9,697.5c1.5-0.9,3-1.8,4.5-2.7C441.9,695.7,440.4,696.6,438.9,697.5z"/>
				<path class="st0" d="M415.5,709.8c1.6-0.7,3.2-1.5,4.8-2.3C418.8,708.3,417.1,709,415.5,709.8z"/>
				<path class="st0" d="M272.4,709.2c0.8,0.6,1.5,1.3,2.3,1.9C273.9,710.5,273.2,709.8,272.4,709.2z"/>
				<path class="st0" d="M256.4,691.7c-0.3-0.5-0.7-1-1-1.5C255.7,690.7,256,691.2,256.4,691.7z"/>
				<path class="st1" d="M278,561.9c-8.3,7.4-15.9,15.4-22.9,24.1H255h0c-15.7,23.5-19.3,51.6-12.3,76.9c0.7,2.7,1.6,5.4,2.6,8
					c0.2,0.5,0.4,0.9,0.5,1.4c0.5,1.3,1.1,2.6,1.6,3.9c0.4,0.9,0.8,1.7,1.2,2.6c0.4,0.8,0.8,1.7,1.3,2.5c0.2,0.4,0.5,0.9,0.7,1.3
					c0.4,0.8,0.9,1.6,1.4,2.5c1,1.8,2.2,3.6,3.3,5.3c0.3,0.5,0.7,1,1,1.5c4.5,6.4,9.9,12.3,16.1,17.5c0.8,0.6,1.5,1.3,2.3,1.9
					c2,1.5,4,3,6.1,4.4c19.2,12.8,42.4,18.1,65.2,14.8c24.5-3.5,47.9-10.6,69.5-20.5c1.6-0.7,3.2-1.5,4.8-2.3
					c6.3-3.1,12.5-6.4,18.6-10c1.5-0.9,3-1.8,4.5-2.7c0.7-0.5,1.5-0.9,2.2-1.4c1.5-0.9,2.9-1.9,4.4-2.9c1.5-1,2.9-1.9,4.3-2.9
					c0.7-0.5,1.4-1,2.1-1.5c2.1-1.5,4.2-3.1,6.3-4.7c1.4-1,2.8-2.1,4.1-3.2c1.4-1.1,2.7-2.2,4.1-3.3c2-1.7,4-3.4,5.9-5.1
					c2-1.7,3.9-3.5,5.8-5.3c1.3-1.2,2.5-2.4,3.8-3.6c0.6-0.6,1.3-1.2,1.9-1.8c2.5-2.5,4.9-5,7.2-7.5c1.2-1.3,2.3-2.6,3.5-3.9
					c1.7-2,3.4-3.9,5.1-6c32.2-38.8,52.9-87.4,57.3-140.5c3.5-42.7-28.3-80.2-71-83.7c-19.3-1.6-38.5,4.1-53.9,16
					c-53.8,41.7-106.6,84.5-158.6,128.3L278,561.9z M233.7,1005.1l-0.1,0.1c-31.1,31.1-70.3,52.9-113.1,62.8l0,0l13.8-48.7
					l179.9-183c9.4-9.5,9.2-24.9-0.3-34.2c-4.2-4.1-9.8-6.6-15.7-6.9c-15.9-0.9-31.7-2.9-47.1-6.2c-15.5-3.3-30.7-7.7-45.6-13.3
					c-30.9-11.7-50.7-42.3-48.6-75.3c4.3-68.5,36.4-132.4,88.9-176.7v-0.1c55.5-46.9,112.1-92.5,169.6-136.9
					c11.8-9.1,14-26.1,4.9-37.9c-3.5-4.5-8.3-7.8-13.7-9.4c-15.9-4.7-32.2-7.5-48.5-8.3c-7.7-0.4-15.4-0.4-23,0
					c-27.7,1.5-55,8.6-80.3,20.9l-144.4,70.3c-19.9,7.9-37.1,21.4-49.4,38.9l-49.2-8.6l8.7-49.2v-0.1L559.8,11.5l-26.3,80.9
					L330.4,240c-8.2,5.9-10,17.4-4,25.5c0.3,0.4,0.6,0.8,1,1.1l-0.1,0.1c7.4,8.5,19,12.2,30,9.5c9.7-2.4,19.5-4.1,29.3-5.1
					c3.9-0.4,7.9-0.7,11.9-0.9c0.2,0,0.4,0,0.6,0c44.2-1.9,88.4,9.9,126.1,34.3c0,0,0,0,0,0c0.9-0.7,1.9-1.4,2.8-2.1l2-1.5
					l269.6-195.9l0.1-0.1l-26.3,80.9v0.1L564.7,337.5l-0.1,0.1c25.5,27,43.5,60.2,52.3,96.3c6.2,25.4,8.2,51.6,6.1,77.6h0.1
					c-6.1,73-37.7,141.5-89.5,193.3L233.7,1005.1z"/>
				<path class="st0" d="M254.9,352l-144.4,70.3c-19.9,7.9-37.1,21.4-49.4,38.9l-0.1,0c12.3-17.5,29.5-31,49.4-38.9L254.9,352
					c25.2-12.3,52.5-19.4,80.2-20.9C307.5,332.7,280.2,339.7,254.9,352z"/>
			</g>
			<g>
				<line class="st2" x1="799.6" y1="105" x2="529.9" y2="301"/>
				<line class="st2" x1="527.9" y1="302.5" x2="529.9" y2="301"/>
				<path class="st2" d="M527.9,302.5c-0.9,0.7-1.9,1.4-2.8,2.1c0,0,0,0-0.1,0c0,0,0,0-0.1,0"/>
				<path class="st2" d="M525.1,304.5c-37.7-24.4-81.8-36.2-126.1-34.3c-0.2,0-0.4,0-0.6,0c-4,0.2-7.9,0.5-11.9,0.9
					c-9.8,1-19.6,2.7-29.3,5.1"/>
				<path class="st2" d="M327.3,266.7c7.4,8.5,19,12.2,30,9.5"/>
				<path class="st2" d="M330.4,240c-8.2,5.9-10,17.4-4,25.5c0.3,0.4,0.6,0.8,1,1.1c0,0,0,0,0,0.1"/>
				<line class="st2" x1="533.5" y1="92.4" x2="330.4" y2="240"/>
				<line class="st2" x1="559.8" y1="11.5" x2="533.5" y2="92.4"/>
				<line class="st2" x1="559.8" y1="11.5" x2="20.5" y2="403.3"/>
				<line class="st2" x1="11.8" y1="452.6" x2="20.5" y2="403.4"/>
				<line class="st2" x1="61" y1="461.2" x2="11.8" y2="452.6"/>
				<path class="st2" d="M110.4,422.3c-19.9,7.9-37.1,21.4-49.4,38.9c0,0,0,0,0,0"/>
				<line class="st2" x1="110.4" y1="422.3" x2="254.8" y2="352"/>
				<path class="st2" d="M406.5,339.4c-15.9-4.7-32.1-7.5-48.4-8.3c-7.7-0.4-15.4-0.4-23,0c-27.7,1.5-55,8.6-80.3,20.9"/>
				<path class="st2" d="M415.3,386.7c11.8-9.1,14-26.1,4.9-37.9c-3.5-4.5-8.3-7.8-13.7-9.4"/>
				<path class="st2" d="M415.3,386.7c-57.5,44.4-114.1,90-169.6,136.9"/>
				<path class="st2" d="M245.7,523.7c-52.5,44.3-84.6,108.2-88.9,176.7"/>
				<path class="st2" d="M156.8,700.4c-2.1,33,17.7,63.6,48.6,75.3"/>
				<path class="st2" d="M205.4,775.7c29.7,11.2,60.9,17.8,92.7,19.5h0.1"/>
				<path class="st2" d="M314.1,836.3c9.4-9.5,9.2-24.9-0.3-34.2c-4.2-4.1-9.8-6.6-15.7-6.9"/>
				<line class="st2" x1="134.2" y1="1019.3" x2="314.1" y2="836.3"/>
				<line class="st2" x1="120.4" y1="1068" x2="134.2" y2="1019.3"/>
				<path class="st2" d="M120.4,1068c0,0,0.1,0,0.1,0c42.9-9.9,82-31.7,113.1-62.9"/>
				<polyline class="st2" points="233.6,1005.2 233.7,1005.1 533.6,704.8 				"/>
				<path class="st2" d="M533.6,704.8c51.8-51.8,83.4-120.3,89.5-193.3"/>
				<path class="st2" d="M623,511.5c2.1-26,0.1-52.2-6.1-77.6"/>
				<path class="st2" d="M616.9,433.9c-8.8-36.1-26.8-69.3-52.3-96.3"/>
				<line class="st2" x1="773.3" y1="186" x2="564.7" y2="337.5"/>
				<polyline class="st2" points="799.6,105 799.6,105.1 773.3,185.9 				"/>
				<path class="st2" d="M436.5,433.5c-53.8,41.7-106.6,84.5-158.6,128.3"/>
				<path class="st2" d="M561.4,501.2c3.5-42.7-28.3-80.2-71-83.7c-19.3-1.6-38.5,4.1-53.9,16"/>
				<path class="st2" d="M346,730.3c24.5-3.5,47.9-10.6,69.5-20.5c1.6-0.7,3.2-1.5,4.8-2.3c6.3-3.1,12.5-6.4,18.6-10
					c1.5-0.9,3-1.8,4.5-2.7c0.7-0.5,1.5-0.9,2.2-1.4c1.5-0.9,2.9-1.9,4.4-2.9c1.5-1,2.9-1.9,4.3-2.9c0.7-0.5,1.4-1,2.1-1.5
					c2.1-1.5,4.2-3.1,6.3-4.7c1.4-1,2.8-2.1,4.1-3.2c1.4-1.1,2.7-2.2,4.1-3.3c2-1.7,4-3.4,5.9-5.1c2-1.7,3.9-3.5,5.8-5.3
					c1.3-1.2,2.5-2.4,3.8-3.6c0.6-0.6,1.3-1.2,1.9-1.8c2.5-2.5,4.9-5,7.2-7.5c1.2-1.3,2.3-2.6,3.5-3.9c1.7-2,3.4-3.9,5.1-6
					c32.2-38.8,52.9-87.3,57.3-140.4"/>
				<path class="st2" d="M255.1,585.9C255.1,585.9,255.1,586,255.1,585.9c-15.8,23.7-19.4,51.7-12.4,77c0.8,2.7,1.6,5.4,2.6,8
					c0.2,0.5,0.4,0.9,0.5,1.4c0.5,1.3,1.1,2.6,1.6,3.9c0.4,0.9,0.8,1.7,1.2,2.6c0.4,0.8,0.8,1.7,1.3,2.5c0.2,0.4,0.5,0.9,0.7,1.3
					c0.4,0.8,0.9,1.6,1.4,2.5c1,1.8,2.2,3.6,3.3,5.3c0.3,0.5,0.7,1,1,1.5c4.5,6.4,9.9,12.3,16.1,17.5c0.8,0.6,1.5,1.3,2.3,1.9
					c2,1.5,4,3,6.1,4.4c19.2,12.8,42.4,18.1,65.2,14.8h0.1"/>
				<path class="st2" d="M278,561.9c-8.3,7.4-15.9,15.4-22.9,24.1"/>
			</g>
		</g>
	</g>
</g>
</svg>
