<?xml version="1.0" encoding="utf-8"?>
<!-- Generator: Adobe Illustrator 23.0.1, SVG Export Plug-In . SVG Version: 6.00 Build 0)  -->
<svg version="1.1" id="katman_1" xmlns="http://www.w3.org/2000/svg" xmlns:xlink="http://www.w3.org/1999/xlink" x="0px" y="0px"
	 viewBox="0 0 100 100" style="enable-background:new 0 0 100 100;" xml:space="preserve">
<style type="text/css">
	.st0{fill:none;stroke:#FFFFFF;stroke-width:3.5;}
</style>
<path id="path11432" class="st0" d="M11.1,96.6c-0.5-0.6-0.5-2.5,0-6.7c0.9-7.5,1.3-8.5,4.4-10.4c3.2-2.1,3.7-2.8,2-3.2
	c-0.9-0.2-1.3-0.9-1.3-2c0-1.9,1.1-2.4,4.6-2.4c3.1,0,3.5-0.5,8-9.2c5-9.7,11.1-18.5,18.5-26.9c5.7-6.4,8.7-9.3,19.7-19.1l2.5-2.2
	l-0.4,2.2c-0.4,2.1-0.2,2,1.7-1.3c1.6-2.6,3.2-4.2,6.5-6.3c6.3-4,11.9-7.1,11.9-6.5c0,0.9-11.9,23.6-13.5,25.6
	c-1.1,1.4-3.3,2.8-7.5,4.5c-6.5,2.7-8.6,4.2-3.5,2.6c1.7-0.6,4-1.3,5.1-1.6c2.3-0.7,2.8-0.4,1.6,1.2c-7.6,9.9-16.3,19.5-18.6,20.7
	c-2.2,1.1-2.5,1.5-1.5,1.8c2,0.7-6.1,6.1-14.8,10c-7.7,3.4-9.2,4.5-6.1,4.5c1.4,0,1.6,0.3,1.6,2.3c0,1.6-0.3,2.3-1,2.3
	c-1.8,0-1,1.2,1.9,2.9c3.5,2.1,4.3,3.9,4.8,11.6l0.4,5.7L36,97.1c-1.2,0.2-7.1,0.4-13.2,0.4C14.5,97.5,11.7,97.3,11.1,96.6
	L11.1,96.6z"/>
<g>
</g>
<g>
</g>
<g>
</g>
<g>
</g>
<g>
</g>
</svg>
