<?xml version="1.0" encoding="utf-8"?>
<!-- Generator: Adobe Illustrator 23.0.1, SVG Export Plug-In . SVG Version: 6.00 Build 0)  -->
<svg version="1.1" id="katman_1" xmlns="http://www.w3.org/2000/svg" xmlns:xlink="http://www.w3.org/1999/xlink" x="0px" y="0px"
	 viewBox="0 0 100 100" style="enable-background:new 0 0 100 100;" xml:space="preserve">
<style type="text/css">
	.st0{fill:#FFFFFF;}
	.st1{fill:none;stroke:#FFFFFF;stroke-width:4;stroke-miterlimit:10;}
</style>
<g>
	<path class="st0" d="M50,5c24.8,0,45,20.2,45,45S74.8,95,50,95S5,74.8,5,50S25.2,5,50,5 M50,0C22.4,0,0,22.4,0,50s22.4,50,50,50
		s50-22.4,50-50S77.6,0,50,0L50,0z"/>
</g>
<g>
	<g>
		<path class="st0" d="M70,34.7c2.6,0,4.8,2.1,4.8,4.8s-2.1,4.8-4.8,4.8s-4.8-2.1-4.8-4.8S67.4,34.7,70,34.7 M70,30.7
			c-4.8,0-8.8,3.9-8.8,8.8s3.9,8.8,8.8,8.8s8.8-3.9,8.8-8.8S74.8,30.7,70,30.7L70,30.7z"/>
	</g>
	<g>
		<path class="st0" d="M70,25.9c7.4,0,13.5,6.1,13.5,13.5S77.4,52.9,70,52.9s-13.5-6.1-13.5-13.5S62.6,25.9,70,25.9 M70,21.9
			c-9.7,0-17.5,7.8-17.5,17.5S60.3,56.9,70,56.9s17.5-7.8,17.5-17.5S79.7,21.9,70,21.9L70,21.9z"/>
	</g>
</g>
<g>
	<rect x="26.3" y="30.7" class="st1" width="7.5" height="17.5"/>
	<g>
		<path class="st0" d="M30,25.9c7.4,0,13.5,6.1,13.5,13.5S37.4,52.9,30,52.9s-13.5-6.1-13.5-13.5S22.6,25.9,30,25.9 M30,21.9
			c-9.7,0-17.5,7.8-17.5,17.5S20.3,56.9,30,56.9s17.5-7.8,17.5-17.5S39.7,21.9,30,21.9L30,21.9z"/>
	</g>
</g>
<g>
</g>
<g>
</g>
<g>
</g>
<g>
</g>
<g>
</g>
</svg>
