<?xml version="1.0" encoding="utf-8"?>
<!-- Generator: Adobe Illustrator 23.0.1, SVG Export Plug-In . SVG Version: 6.00 Build 0)  -->
<svg version="1.1" id="katman_1" xmlns="http://www.w3.org/2000/svg" xmlns:xlink="http://www.w3.org/1999/xlink" x="0px" y="0px"
	 viewBox="0 0 101 101" style="enable-background:new 0 0 101 101;" xml:space="preserve">
<style type="text/css">
	.st0{fill:none;stroke:#FFFFFF;stroke-width:4;stroke-linecap:round;stroke-miterlimit:10;}
	.st1{fill:#FFFFFF;}
</style>
<g>
	<path class="st0" d="M67.7,5.8c-1.4,5.6-8.6,9.8-17.3,9.8s-15.9-4.3-17.3-9.8 M67.7,5.8c-1.3-2.1-8.5-3.7-17.3-3.7
		S34.5,3.7,33.2,5.8"/>
	<g id="XMLID_1_">
		<g>
			<path class="st1" d="M61.3,8c-1.7,1.8-5.8,3.1-10.7,3.1c-5.1,0-9.4-1.4-10.9-3.3c1.8-0.7,5.8-1.2,10.6-1.2
				C55.4,6.6,59.9,7.2,61.3,8z"/>
		</g>
		<g>
		</g>
	</g>
</g>
<path class="st0" d="M63.5,13.4c17.8,5.5,30.8,22.2,30.8,41.8c0,24.2-19.6,43.7-43.7,43.7S6.7,79.4,6.7,55.2
	c0-19.5,12.8-36,30.4-41.7 M33.3,14.9c-0.2,0.3-0.4,0.6-0.4,0.9c0,2.4,7.8,4.4,17.5,4.4s17.5-2,17.5-4.4c0-0.3-0.1-0.6-0.4-0.9"/>
<g>
	<line class="st0" x1="65" y1="51.7" x2="86.6" y2="51.7"/>
	<path class="st0" d="M91.8,40.8c-2.6,1.5-4.7,5.6-5.3,10.9"/>
	<path class="st0" d="M65,51.7c-1.6-6.6-7.5-11.5-14.6-11.5c-7.1,0-13,4.9-14.6,11.5"/>
	<line class="st0" x1="35.9" y1="51.7" x2="14.3" y2="51.7"/>
	<path class="st0" d="M9.2,40.8c2.6,1.5,4.6,5.7,5.2,10.9"/>
</g>
<g>
	<line class="st0" x1="65" y1="58.7" x2="86.6" y2="58.7"/>
	<path class="st0" d="M91.8,69.6c-2.6-1.5-4.7-5.6-5.3-10.9"/>
	<path class="st0" d="M65,58.7c-1.6,6.6-7.5,11.5-14.6,11.5c-7.1,0-13-4.9-14.6-11.5"/>
	<line class="st0" x1="35.9" y1="58.7" x2="14.3" y2="58.7"/>
	<path class="st0" d="M9.2,69.6c2.6-1.5,4.6-5.7,5.2-10.9"/>
</g>
</svg>
