<?xml version="1.0" encoding="utf-8"?>
<!-- Generator: Adobe Illustrator 23.0.1, SVG Export Plug-In . SVG Version: 6.00 Build 0)  -->
<svg version="1.1" id="katman_1" xmlns="http://www.w3.org/2000/svg" xmlns:xlink="http://www.w3.org/1999/xlink" x="0px" y="0px"
	 viewBox="0 0 100 100" style="enable-background:new 0 0 100 100;" xml:space="preserve">
<style type="text/css">
	.st0{fill:none;stroke:#FFFFFF;stroke-width:2;stroke-linejoin:round;stroke-miterlimit:10;}
	.st1{fill:none;stroke:#FFFFFF;stroke-linejoin:round;stroke-miterlimit:10;}
</style>
<g>
	<rect x="30.9" y="11.6" class="st0" width="38.2" height="6.7"/>
	<rect x="46.6" y="18.3" class="st0" width="6.7" height="34"/>
	<rect x="33.2" y="13.8" class="st1" width="2.2" height="2.2"/>
	<rect x="37.7" y="13.8" class="st1" width="2.2" height="2.2"/>
	<rect x="42.1" y="13.8" class="st1" width="2.2" height="2.2"/>
	<rect x="46.6" y="13.8" class="st1" width="2.2" height="2.2"/>
	<rect x="51.1" y="13.8" class="st1" width="2.2" height="2.2"/>
	<rect x="55.6" y="13.8" class="st1" width="2.2" height="2.2"/>
	<rect x="60.1" y="13.8" class="st1" width="2.2" height="2.2"/>
	<rect x="64.6" y="13.8" class="st1" width="2.2" height="2.2"/>
	<rect x="16" y="55.3" class="st0" width="10" height="13"/>
	<rect x="16" y="72.4" class="st0" width="10" height="13"/>
	<rect x="74" y="55.3" class="st0" width="10" height="13"/>
	<rect x="74" y="72.4" class="st0" width="10" height="13"/>
	<rect x="30.9" y="75.4" class="st0" width="10" height="10"/>
	<rect x="59.1" y="75.4" class="st0" width="10" height="10"/>
	<rect x="35.5" y="56.8" class="st0" width="29" height="15.1"/>
	<polyline class="st0" points="21,55.3 21,52.3 79,52.3 79,55.3 	"/>
	<line class="st0" x1="21" y1="72.4" x2="21" y2="68.3"/>
	<polyline class="st0" points="79,85.4 79,88.4 21,88.4 21,85.4 	"/>
	<line class="st0" x1="79" y1="68.3" x2="79" y2="72.4"/>
</g>
<g>
</g>
<g>
</g>
<g>
</g>
<g>
</g>
<g>
</g>
</svg>
