<?xml version="1.0" encoding="utf-8"?>
<!-- Generator: Adobe Illustrator 23.0.1, SVG Export Plug-In . SVG Version: 6.00 Build 0)  -->
<svg version="1.1" id="katman_1" xmlns="http://www.w3.org/2000/svg" xmlns:xlink="http://www.w3.org/1999/xlink" x="0px" y="0px"
	 viewBox="0 0 100 100" style="enable-background:new 0 0 100 100;" xml:space="preserve">
<style type="text/css">
	.st0{fill:none;stroke:#FFFFFF;stroke-width:5;stroke-miterlimit:10;}
</style>
<g>
	<circle class="st0" cx="25" cy="58.3" r="10"/>
	<circle class="st0" cx="75" cy="58.3" r="10"/>
	<rect x="14.6" y="34.2" class="st0" width="70.4" height="9"/>
	<path class="st0" d="M22.5,34.2c0-1.4,1.1-2.5,2.5-2.5s2.5,1.1,2.5,2.5"/>
	<path class="st0" d="M35,34.2c0-1.4,1.1-2.5,2.5-2.5s2.5,1.1,2.5,2.5"/>
	<path class="st0" d="M72.5,34.2c0-1.4,1.1-2.5,2.5-2.5s2.5,1.1,2.5,2.5"/>
	<line class="st0" x1="65" y1="58.3" x2="35" y2="58.3"/>
	<path class="st0" d="M65,58.3"/>
	<polyline class="st0" points="15,58.3 10,58.3 10,43.3 90,43.3 90,58.3 85,58.3 	"/>
</g>
<g>
</g>
<g>
</g>
<g>
</g>
<g>
</g>
<g>
</g>
</svg>
