<?xml version="1.0" encoding="utf-8"?>
<!-- Generator: Adobe Illustrator 23.0.1, SVG Export Plug-In . SVG Version: 6.00 Build 0)  -->
<svg version="1.1" id="katman_1" xmlns="http://www.w3.org/2000/svg" xmlns:xlink="http://www.w3.org/1999/xlink" x="0px" y="0px"
	 viewBox="0 0 100 100" style="enable-background:new 0 0 100 100;" xml:space="preserve">
<style type="text/css">
	.st0{fill:none;stroke:#FFFFFF;stroke-width:5;stroke-linecap:round;stroke-miterlimit:10;}
	.st1{fill:#FFFFFF;}
	.st2{fill:none;stroke:#FFFFFF;stroke-width:3;stroke-miterlimit:10;}
</style>
<circle class="st0" cx="47.1" cy="79.7" r="10.8"/>
<line class="st0" x1="2.5" y1="89.5" x2="32.4" y2="89.5"/>
<circle class="st0" cx="85.5" cy="79.7" r="10.8"/>
<g>
	<circle class="st1" cx="69.4" cy="66.9" r="1.9"/>
	<circle class="st1" cx="63.2" cy="66.9" r="1.9"/>
	<path class="st2" d="M70.4,71.7h-8.3c-1.7,0-3.1-1.8-3.1-4v-2c0-2.2,1.4-4,3.1-4h8.3c1.7,0,3.1,1.8,3.1,4v2
		C73.5,69.9,72.1,71.7,70.4,71.7z"/>
</g>
<line class="st0" x1="75.8" y1="87.5" x2="56.7" y2="87.5"/>
<line class="st0" x1="37.6" y1="87.5" x2="35.1" y2="87.5"/>
<line class="st0" x1="97.5" y1="87.5" x2="95" y2="87.5"/>
<path class="st0" d="M32.4,89.5c0.4-1.2,1.5-2,2.7-2"/>
<path class="st0" d="M31.6,70.8c2.6-6,8.6-10.3,15.6-10.3"/>
<path class="st0" d="M31.6,70.8C26.3,81.9,15.3,89.5,2.5,89.5"/>
<line class="st0" x1="47.2" y1="60.5" x2="97.5" y2="60.5"/>
<line class="st0" x1="97.5" y1="60.5" x2="97.5" y2="75.5"/>
<line class="st0" x1="97.5" y1="87.5" x2="97.5" y2="84.2"/>
<circle class="st1" cx="47.1" cy="79.7" r="3"/>
<circle class="st1" cx="85.5" cy="79.7" r="3"/>
</svg>
