<?xml version="1.0" encoding="utf-8"?>
<!-- Generator: Adobe Illustrator 23.0.1, SVG Export Plug-In . SVG Version: 6.00 Build 0)  -->
<svg version="1.1" id="katman_1" xmlns="http://www.w3.org/2000/svg" xmlns:xlink="http://www.w3.org/1999/xlink" x="0px" y="0px"
	 viewBox="0 0 400 400" style="enable-background:new 0 0 400 400;" xml:space="preserve">
<style type="text/css">
	.st0{fill:none;stroke:#FFFFFF;stroke-width:6;stroke-linecap:round;stroke-miterlimit:10;}
</style>
<g>
	<circle class="st0" cx="188.9" cy="209.5" r="47.5"/>
	<line class="st0" x1="13.6" y1="257" x2="130.8" y2="257"/>
	<circle class="st0" cx="338.9" cy="209.5" r="47.5"/>
	<g>
		<circle class="st0" cx="276.1" cy="167" r="7.5"/>
		<circle class="st0" cx="251.8" cy="167" r="7.5"/>
		<path class="st0" d="M280.3,182h-32.7c-6.6,0-12-5.4-12-12v-6c0-6.6,5.4-12,12-12h32.7c6.6,0,12,5.4,12,12v6
			C292.3,176.6,286.9,182,280.3,182z"/>
	</g>
	<line class="st0" x1="301.4" y1="249.2" x2="226.4" y2="249.2"/>
	<line class="st0" x1="151.4" y1="249.2" x2="141.4" y2="249.2"/>
	<line class="st0" x1="386.4" y1="249.2" x2="376.4" y2="249.2"/>
	<path class="st0" d="M130.8,257c1.5-4.6,5.7-7.8,10.6-7.8"/>
	<path class="st0" d="M127.8,183.4c10.2-23.7,33.8-40.4,61.3-40.4"/>
	<path class="st0" d="M127.8,183.4C107,227,63.7,257,13.6,257"/>
	<line class="st0" x1="189.1" y1="143" x2="386.4" y2="143"/>
	<line class="st0" x1="386.4" y1="143.2" x2="386.4" y2="183.2"/>
	<line class="st0" x1="386.4" y1="249.2" x2="386.4" y2="236.2"/>
	<circle class="st0" cx="189.1" cy="209.5" r="5"/>
	<circle class="st0" cx="338.9" cy="209.5" r="5"/>
</g>
<g>
</g>
<g>
</g>
<g>
</g>
<g>
</g>
<g>
</g>
</svg>
