<?xml version="1.0" encoding="utf-8"?>
<!-- Generator: Adobe Illustrator 23.0.1, SVG Export Plug-In . SVG Version: 6.00 Build 0)  -->
<svg version="1.1" id="katman_1" xmlns="http://www.w3.org/2000/svg" xmlns:xlink="http://www.w3.org/1999/xlink" x="0px" y="0px"
	 viewBox="0 0 100 100" style="enable-background:new 0 0 100 100;" xml:space="preserve">
<style type="text/css">
	.st0{fill:none;stroke:#FFFFFF;stroke-width:5;stroke-linecap:round;stroke-miterlimit:10;}
	.st1{fill:#FFFFFF;stroke:#FFFFFF;stroke-miterlimit:10;}
	.st2{fill:none;stroke:#FFFFFF;stroke-miterlimit:10;}
	.st3{fill:#FFFFFF;}
	.st4{fill:none;stroke:#FFFFFF;stroke-width:5;stroke-miterlimit:10;}
</style>
<g>
	<g>
		<path class="st0" d="M62.5,37.1c0,6.9-5.6,12.5-12.5,12.5S37.5,44,37.5,37.1"/>
		<line class="st0" x1="37.5" y1="37.1" x2="37.5" y2="12.1"/>
		<line class="st0" x1="62.5" y1="37.1" x2="62.5" y2="12.1"/>
		<line class="st0" x1="37.5" y1="12.1" x2="62.5" y2="12.1"/>
		<path class="st1" d="M52.5,52.9"/>
		<g>
			<line class="st2" x1="47.5" y1="56.8" x2="52.5" y2="52.9"/>
			<line class="st2" x1="48.2" y1="67.1" x2="52.5" y2="63.8"/>
			<path class="st1" d="M47.5,56.8"/>
			<path class="st1" d="M47.5,59"/>
			<path class="st1" d="M47.5,61.2"/>
			<path class="st1" d="M48.2,67.1"/>
			<polyline class="st1" points="52.5,63.8 52.5,67.1 48.2,67.1 			"/>
			<path class="st1" d="M52.5,63.8"/>
			<path class="st1" d="M52.5,61.6"/>
			<g id="XMLID_2_">
				<g>
					<polygon class="st3" points="52.5,59.5 52.5,61.6 47.5,65.4 47.5,63.4 					"/>
				</g>
				<g>
					<line class="st2" x1="47.5" y1="63.4" x2="52.5" y2="59.5"/>
					<line class="st2" x1="47.5" y1="65.4" x2="52.5" y2="61.6"/>
					<line class="st2" x1="47.5" y1="65.4" x2="47.5" y2="63.4"/>
					<line class="st2" x1="52.5" y1="59.5" x2="52.5" y2="61.6"/>
				</g>
			</g>
			<path class="st1" d="M52.5,59.5"/>
			<path class="st1" d="M52.5,57.3"/>
			<g id="XMLID_1_">
				<g>
					<polygon class="st3" points="52.5,55.1 52.5,57.3 47.5,61.2 47.5,59 					"/>
				</g>
				<g>
					<line class="st2" x1="47.5" y1="59" x2="52.5" y2="55.1"/>
					<line class="st2" x1="47.5" y1="61.2" x2="52.5" y2="57.3"/>
					<line class="st2" x1="47.5" y1="61.2" x2="47.5" y2="59"/>
					<line class="st2" x1="52.5" y1="55.1" x2="52.5" y2="57.3"/>
				</g>
			</g>
			<path class="st1" d="M52.5,55.1"/>
			<polyline class="st1" points="47.5,56.8 47.5,47.1 52.5,47.1 52.5,52.9 			"/>
		</g>
	</g>
	<g>
		<g id="XMLID_3_">
			<g>
				<polygon class="st3" points="67.5,52.9 67.5,87.9 32.5,87.9 32.5,52.9 41.3,52.9 41.3,70.4 58.8,70.4 58.8,52.9 				"/>
			</g>
			<g>
				<polyline class="st2" points="58.8,52.9 67.5,52.9 67.5,87.9 32.5,87.9 32.5,52.9 41.3,52.9 				"/>
				<polyline class="st2" points="58.8,52.9 58.8,70.4 41.3,70.4 41.3,52.9 				"/>
			</g>
		</g>
	</g>
</g>
<rect x="5" y="5" class="st4" width="90" height="90"/>
</svg>
