<?xml version="1.0" encoding="utf-8"?>
<!-- Generator: Adobe Illustrator 23.0.1, SVG Export Plug-In . SVG Version: 6.00 Build 0)  -->
<svg version="1.1" id="katman_1" xmlns="http://www.w3.org/2000/svg" xmlns:xlink="http://www.w3.org/1999/xlink" x="0px" y="0px"
	 viewBox="0 0 100 100" style="enable-background:new 0 0 100 100;" xml:space="preserve">
<style type="text/css">
	.st0{fill:none;stroke:#FFFFFF;stroke-width:5;stroke-miterlimit:10;}
	.st1{fill:none;stroke:#FFFFFF;stroke-width:5;stroke-linecap:round;stroke-miterlimit:10;}
	.st2{fill:#FFFFFF;stroke:#FFFFFF;stroke-miterlimit:10;}
	.st3{fill:none;stroke:#FFFFFF;stroke-miterlimit:10;}
	.st4{fill:#FFFFFF;}
</style>
<g>
	<rect x="5" y="5" class="st0" width="90" height="90"/>
	<g>
		<g>
			<path class="st1" d="M62.5,43.3c0,6.9-5.6,12.5-12.5,12.5s-12.5-5.6-12.5-12.5"/>
			<line class="st1" x1="37.5" y1="43.3" x2="37.5" y2="18.3"/>
			<line class="st1" x1="62.5" y1="43.3" x2="62.5" y2="18.3"/>
			<line class="st1" x1="37.5" y1="18.3" x2="62.5" y2="18.3"/>
			<path class="st2" d="M52.5,59.2"/>
			<g>
				<line class="st3" x1="47.5" y1="63" x2="52.5" y2="59.2"/>
				<line class="st3" x1="48.2" y1="73.3" x2="52.5" y2="70"/>
				<path class="st2" d="M47.5,63"/>
				<path class="st2" d="M47.5,65.3"/>
				<path class="st2" d="M47.5,67.4"/>
				<path class="st2" d="M48.2,73.3"/>
				<polyline class="st2" points="52.5,70 52.5,73.3 48.2,73.3 				"/>
				<path class="st2" d="M52.5,70"/>
				<path class="st2" d="M52.5,67.8"/>
				<g id="XMLID_2_">
					<g>
						<polygon class="st4" points="52.5,65.8 52.5,67.8 47.5,71.7 47.5,69.7 						"/>
					</g>
					<g>
						<line class="st3" x1="47.5" y1="69.7" x2="52.5" y2="65.8"/>
						<line class="st3" x1="47.5" y1="71.7" x2="52.5" y2="67.8"/>
						<line class="st3" x1="47.5" y1="71.7" x2="47.5" y2="69.7"/>
						<line class="st3" x1="52.5" y1="65.8" x2="52.5" y2="67.8"/>
					</g>
				</g>
				<path class="st2" d="M52.5,65.8"/>
				<path class="st2" d="M52.5,63.5"/>
				<g id="XMLID_1_">
					<g>
						<polygon class="st4" points="52.5,61.3 52.5,63.5 47.5,67.4 47.5,65.3 						"/>
					</g>
					<g>
						<line class="st3" x1="47.5" y1="65.3" x2="52.5" y2="61.3"/>
						<line class="st3" x1="47.5" y1="67.4" x2="52.5" y2="63.5"/>
						<line class="st3" x1="47.5" y1="67.4" x2="47.5" y2="65.3"/>
						<line class="st3" x1="52.5" y1="61.3" x2="52.5" y2="63.5"/>
					</g>
				</g>
				<path class="st2" d="M52.5,61.3"/>
				<polyline class="st2" points="47.5,63 47.5,53.3 52.5,53.3 52.5,59.2 				"/>
			</g>
		</g>
		<rect x="32.5" y="76.7" class="st4" width="35" height="5"/>
	</g>
</g>
</svg>
