<?xml version="1.0" encoding="utf-8"?>
<!-- Generator: Adobe Illustrator 23.0.1, SVG Export Plug-In . SVG Version: 6.00 Build 0)  -->
<svg version="1.1" id="katman_1" xmlns="http://www.w3.org/2000/svg" xmlns:xlink="http://www.w3.org/1999/xlink" x="0px" y="0px"
	 viewBox="0 0 100 100" style="enable-background:new 0 0 100 100;" xml:space="preserve">
<style type="text/css">
	.st0{fill:none;stroke:#FFFFFF;stroke-width:5;stroke-miterlimit:10;}
</style>
<g>
	<path class="st0" d="M85.5,80h-71c-6.6,0-12-5.4-12-12V32c0-6.6,5.4-12,12-12h71c6.6,0,12,5.4,12,12v36C97.5,74.6,92.1,80,85.5,80z
		"/>
	<circle class="st0" cx="17.5" cy="34" r="5"/>
	<circle class="st0" cx="17.5" cy="50" r="5"/>
	<circle class="st0" cx="17.5" cy="66" r="5"/>
	<rect x="38.2" y="29" class="st0" width="10" height="10"/>
	<rect x="60.9" y="45" class="st0" width="10" height="10"/>
	<rect x="38.2" y="61" class="st0" width="10" height="10"/>
	<line class="st0" x1="22.5" y1="34" x2="38.2" y2="34"/>
	<line class="st0" x1="22.5" y1="50" x2="60.9" y2="50"/>
	<line class="st0" x1="22.5" y1="66" x2="38.2" y2="66"/>
	<circle class="st0" cx="82.5" cy="34" r="5"/>
	<circle class="st0" cx="82.5" cy="66" r="5"/>
</g>
</svg>
