<?xml version="1.0" encoding="utf-8"?>
<!-- Generator: Adobe Illustrator 23.0.1, SVG Export Plug-In . SVG Version: 6.00 Build 0)  -->
<svg version="1.1" id="katman_1" xmlns="http://www.w3.org/2000/svg" xmlns:xlink="http://www.w3.org/1999/xlink" x="0px" y="0px"
	 viewBox="0 0 100 100" style="enable-background:new 0 0 100 100;" xml:space="preserve">
<style type="text/css">
	.st0{fill:none;stroke:#FFFFFF;stroke-width:5;stroke-linecap:round;stroke-miterlimit:10;}
</style>
<g>
	<circle class="st0" cx="23.1" cy="77.1" r="11.5"/>
	<line class="st0" x1="37.7" y1="81.5" x2="97.2" y2="81.5"/>
	<path class="st0" d="M36.9,65.5c9.4,1.1,16.8,0.5,21.9-0.3c15.5-2.5,21-3.8,21-3.8c4.4-1,5.8-1.5,7.8-0.9c6.8,2.1,8.9,14.1,9.6,21"
		/>
	<path class="st0" d="M71.5,81.5c1.7,4.2,5.8,7.1,10.6,7.1c4.8,0,8.9-2.9,10.6-7.1"/>
	<path class="st0" d="M9.1,82.7L3.3,69.9c-0.2-1.5-0.2-3.9,0.9-6.3c2.3-4.9,7.6-6.7,11.6-7.9c4.1-1.3,4.9-0.7,15.4-2
		c6.4-0.8,9.6-1.2,11.9-2c6.5-2.4,6.6-5.1,12.5-7.8c1.8-0.8,10.5-4.8,19.3-1.3c5.5,2.2,10,6.9,11.9,11.4c0.6,1.3,2.6,6.4,2.6,6.6
		l0,0c0.1,0.3,0.2,0.7,0.4,1"/>
	<path class="st0" d="M10.8,60.7c0.2,0.8,0.4,1.9,0.2,3c-0.4,3.4-3.1,5.5-4,6.1"/>
</g>
</svg>
