<?xml version="1.0" encoding="utf-8"?>
<!-- Generator: Adobe Illustrator 23.0.1, SVG Export Plug-In . SVG Version: 6.00 Build 0)  -->
<svg version="1.1"
	 id="svg2" inkscape:version="0.48.4 r9939" sodipodi:docname="Globe_icon.svg" xmlns:cc="http://creativecommons.org/ns#" xmlns:dc="http://purl.org/dc/elements/1.1/" xmlns:inkscape="http://www.inkscape.org/namespaces/inkscape" xmlns:rdf="http://www.w3.org/1999/02/22-rdf-syntax-ns#" xmlns:sodipodi="http://sodipodi.sourceforge.net/DTD/sodipodi-0.dtd" xmlns:svg="http://www.w3.org/2000/svg"
	 xmlns="http://www.w3.org/2000/svg" xmlns:xlink="http://www.w3.org/1999/xlink" x="0px" y="0px" viewBox="0 0 100 100"
	 style="enable-background:new 0 0 100 100;" xml:space="preserve">
<style type="text/css">
	.st0{fill:none;stroke:#FFFFFF;stroke-width:5;}
</style>
<sodipodi:namedview  bordercolor="#666666" borderopacity="1" gridtolerance="10" guidetolerance="10" id="namedview6" inkscape:current-layer="svg2" inkscape:cx="264.12085" inkscape:cy="85.913893" inkscape:pageopacity="0" inkscape:pageshadow="2" inkscape:window-height="705" inkscape:window-maximized="1" inkscape:window-width="1366" inkscape:window-x="-8" inkscape:window-y="-8" inkscape:zoom="0.79465332" objecttolerance="10" pagecolor="#ffffff" showgrid="false">
	</sodipodi:namedview>
<path id="path3822" class="st0" d="M53.9,2.9c28.6,28.2,28.6,66.1,0,94.3 M13.2,79.9c22-15.7,51.6-15.7,73.6,0 M46.9,2.4
	c-28.8,28.4-28.8,66.5,0,94.9 M49.8,2.4C23.5,2.6,2.4,23.9,2.5,50.2C2.6,76.4,24,97.5,50.2,97.4c26.2-0.1,47.4-21.5,47.3-47.7
	c-0.1-26-21.2-47.1-47.3-47.2H49.8z M50,2.4v94.9 M97.5,49.9h-95 M13.2,21.4c22,15.7,51.6,15.7,73.6,0"/>
</svg>
