<?xml version="1.0" encoding="utf-8"?>
<!-- Generator: Adobe Illustrator 23.0.1, SVG Export Plug-In . SVG Version: 6.00 Build 0)  -->
<svg version="1.1" id="katman_1" xmlns:dsy="http://www.3ds.com/print"
	 xmlns="http://www.w3.org/2000/svg" xmlns:xlink="http://www.w3.org/1999/xlink" x="0px" y="0px" viewBox="0 0 811.1 1079.4"
	 style="enable-background:new 0 0 811.1 1079.4;" xml:space="preserve">
<style type="text/css">
	.st0{fill:#656564;}
	.st1{fill:#96CC33;}
	.st2{fill:none;stroke:#96CC33;stroke-width:22;stroke-linecap:round;}
</style>
<g id="XMLID_3_">
	<g>
		<g id="XMLID_1_">
			<g>
				<polygon class="st0" points="533.6,704.8 233.7,1005.2 233.7,1005.1 				"/>
				<path class="st0" d="M495.5,651.5c1.2-1.3,2.3-2.6,3.5-3.9C497.8,649,496.7,650.3,495.5,651.5z"/>
				<path class="st0" d="M488.3,659.1c-0.6,0.6-1.3,1.2-1.9,1.8C487,660.3,487.6,659.7,488.3,659.1z"/>
				<path class="st0" d="M486.4,660.9c-0.9,0.9-1.9,1.8-2.8,2.7C484.5,662.7,485.4,661.8,486.4,660.9z"/>
				<path class="st0" d="M483.6,663.6c-0.3,0.3-0.6,0.6-1,0.9C482.9,664.2,483.2,663.9,483.6,663.6z"/>
				<path class="st0" d="M476.9,669.8c1.9-1.8,3.8-3.4,5.6-5.2C480.7,666.4,478.9,668.1,476.9,669.8z"/>
				<path class="st0" d="M466.9,678.2c1.3-1.1,2.6-2.1,3.9-3.2C469.5,676.1,468.3,677.1,466.9,678.2z"/>
				<path class="st0" d="M466.9,678.2c0,0-0.1,0.1-0.1,0.1C466.8,678.3,466.9,678.2,466.9,678.2z"/>
				<path class="st0" d="M466,678.8c-0.8,0.6-1.6,1.3-2.4,1.8C464.4,680,465.2,679.4,466,678.8z"/>
				<path class="st0" d="M463.7,680.7c0.8-0.6,1.6-1.2,2.4-1.8c0.3-0.2,0.5-0.4,0.8-0.6c-1.3,1.1-2.6,2-4,3.1
					C463,681.2,463.3,681,463.7,680.7C463.6,680.7,463.6,680.7,463.7,680.7z"/>
				<path class="st0" d="M462.6,681.3c-2,1.7-4.1,3.2-6.3,4.7C458.5,684.5,460.6,682.9,462.6,681.3z"/>
				<path class="st0" d="M454.3,687.6c-1.3,0.8-2.6,1.7-3.9,2.7c0,0,0,0,0,0C451.6,689.3,453,688.4,454.3,687.6z"/>
				<path class="st0" d="M450,690.4c-0.7,0.5-1.5,1-2.2,1.5C448.5,691.4,449.3,690.9,450,690.4z"/>
				<path class="st0" d="M447.6,692c-0.6,0.4-1.3,0.9-2,1.3C446.2,692.9,446.9,692.5,447.6,692z"/>
				<path class="st0" d="M419.1,708.1c-1.2,0.6-2.4,1.2-3.6,1.7C416.7,709.2,417.9,708.7,419.1,708.1z"/>
				<path class="st0" d="M335.1,331.1c-26.7,1.5-53.2,8.2-77.8,19.8c8.7-4.1,17.6-7.6,26.7-10.5C300.6,335.2,317.8,332,335.1,331.1z
					"/>
				<path class="st0" d="M255.6,690.6c0.3,0.4,0.5,0.7,0.8,1.1C256.1,691.3,255.9,691,255.6,690.6z"/>
				<path class="st0" d="M255.5,690.3c0.1,0.1,0.1,0.2,0.2,0.3C255.6,690.5,255.5,690.4,255.5,690.3z"/>
				<path class="st1" d="M233.7,1005.1l-0.1,0.1c-13.6,13.6-28.7,25.4-45.1,35.2c-1.2,0.7-2.4,1.4-3.5,2.1
					c-16.5,9.5-34.1,17.1-52.5,22.4c-4,1.1-7.9,2.2-12,3.1l13.8-48.7l179.9-183c9.4-9.5,9.2-24.9-0.3-34.2
					c-4.2-4.1-9.8-6.6-15.7-6.9c-15.9-0.9-31.7-2.9-47.1-6.2c-15.5-3.3-30.7-7.7-45.6-13.3c-30.9-11.7-50.7-42.3-48.6-75.3
					c4.3-68.5,36.4-132.4,88.9-176.7v-0.1c55.5-46.9,112.1-92.5,169.6-136.9c11.8-9.1,14-26.1,4.9-37.9c-3.5-4.5-8.3-7.8-13.7-9.4
					c-9.9-2.9-20-5.1-30.2-6.6c-6.1-0.9-12.2-1.4-18.3-1.7c-7.7-0.4-15.4-0.4-23,0c-17.3,0.9-34.5,4.1-51.1,9.3
					c-10,3.1-19.7,7-29.2,11.6l-144.4,70.3c-19.9,7.9-37.1,21.4-49.4,38.9l-49.2-8.6l8.7-49.2v-0.1L559.8,11.5l-26.3,80.9L330.4,240
					c-8.2,5.9-10,17.4-4,25.5c0.3,0.4,0.6,0.8,1,1.1l-0.1,0.1c7.4,8.5,19,12.2,30,9.5c9.7-2.4,19.5-4.1,29.3-5.1
					c1-0.1,2-0.2,2.9-0.3c1-0.1,2-0.2,3-0.2c1-0.1,2-0.1,3-0.2s2-0.1,3-0.2c0.2,0,0.3,0,0.5,0c9.5-0.4,19-0.2,28.5,0.7
					c34.5,3.1,68.1,14.5,97.7,33.6c0.9-0.7,1.9-1.4,2.8-2.1l2-1.5L799.5,105l0,0l0.1-0.1l-26.3,80.9v0.1L564.7,337.5l-0.1,0.1
					c25.5,27,43.5,60.2,52.3,96.3c6.2,25.4,8.2,51.6,6.1,77.6h0.1c-6.1,73-37.7,141.5-89.5,193.3L233.7,1005.1z M255,586
					c-9.3,13.9-14.4,29.5-15.5,45.1c-0.8,10.7,0.3,21.5,3.2,31.8c0.7,2.7,1.6,5.4,2.6,8c0.2,0.5,0.4,0.9,0.5,1.4
					c0.5,1.3,1.1,2.6,1.6,3.9c0.4,0.9,0.8,1.7,1.2,2.6c0.4,0.8,0.8,1.7,1.3,2.5c0.2,0.4,0.5,0.9,0.7,1.3c0.4,0.8,0.9,1.6,1.4,2.5
					c1,1.8,2.2,3.6,3.3,5.3c0.3,0.5,0.7,1,1,1.5c4.5,6.4,9.9,12.3,16.1,17.5c0.8,0.6,1.5,1.3,2.3,1.9c2,1.5,4,3,6.1,4.4
					c19.2,12.8,42.4,18.1,65.2,14.8c24.5-3.5,47.9-10.6,69.5-20.5c1.6-0.7,3.2-1.5,4.8-2.3c6.3-3.1,12.5-6.4,18.6-10
					c1.5-0.9,3-1.8,4.5-2.7c0.7-0.5,1.5-0.9,2.2-1.4c1.5-0.9,2.9-1.9,4.4-2.9s2.9-1.9,4.3-2.9c0.7-0.5,1.4-1,2.1-1.5
					c2.1-1.5,4.2-3.1,6.3-4.7c1.4-1,2.8-2.1,4.1-3.2c1.4-1.1,2.7-2.2,4.1-3.3c2-1.7,4-3.4,5.9-5.1c2-1.7,3.9-3.5,5.8-5.3
					c1.3-1.2,2.5-2.4,3.8-3.6c0.6-0.6,1.3-1.2,1.9-1.8c2.5-2.5,4.9-5,7.2-7.5c1.2-1.3,2.3-2.6,3.5-3.9c1.7-2,3.4-3.9,5.1-6
					c32.2-38.8,52.9-87.4,57.3-140.5c0.1-1.1,0.2-2.3,0.2-3.4c0.1-1.6,0.1-3.3,0-4.9c-0.9-39.2-31.3-72.1-71.2-75.4
					c-19.3-1.6-38.5,4.1-53.9,16c-53.8,41.7-106.6,84.5-158.6,128.3c-8.3,7.4-15.8,15.3-22.8,24H255L255,586z"/>
				<path class="st0" d="M110.5,422.3c-19.9,7.9-37.1,21.4-49.4,38.9H61C73.3,443.7,90.5,430.2,110.5,422.3L254.8,352L110.5,422.3z"
					/>
			</g>
			<g>
				<polyline class="st2" points="799.6,105 799.5,105 529.9,301 				"/>
				<line class="st2" x1="527.9" y1="302.5" x2="529.9" y2="301"/>
				<path class="st2" d="M527.9,302.5c-0.9,0.7-1.9,1.4-2.8,2.1c0,0,0,0-0.1,0c0,0,0,0-0.1,0"/>
				<path class="st2" d="M525.1,304.5c-29.6-19.2-63.1-30.5-97.6-33.6c-9.5-0.8-19-1.1-28.5-0.7c-0.2,0-0.3,0-0.5,0c0,0-0.1,0-0.1,0
					c-1,0-1.9,0.1-2.9,0.2c-1,0.1-2,0.1-3,0.2c-1,0.1-2,0.2-3,0.2c-1,0.1-2,0.2-3,0.3c-9.8,1-19.6,2.7-29.3,5.1"/>
				<path class="st2" d="M327.3,266.7c7.4,8.5,19,12.2,30,9.5"/>
				<path class="st2" d="M330.4,240c-8.2,5.9-10,17.4-4,25.5c0.3,0.4,0.6,0.8,1,1.1c0,0,0,0,0,0.1"/>
				<line class="st2" x1="533.5" y1="92.4" x2="330.4" y2="240"/>
				<line class="st2" x1="559.8" y1="11.5" x2="533.5" y2="92.4"/>
				<line class="st2" x1="559.8" y1="11.5" x2="20.5" y2="403.3"/>
				<line class="st2" x1="11.8" y1="452.6" x2="20.5" y2="403.4"/>
				<line class="st2" x1="61" y1="461.2" x2="11.8" y2="452.6"/>
				<path class="st2" d="M110.4,422.3c-19.9,7.9-37.1,21.4-49.4,38.9"/>
				<line class="st2" x1="110.4" y1="422.3" x2="254.8" y2="352"/>
				<path class="st2" d="M406.5,339.4c-9.9-2.9-20-5.1-30.1-6.6c-6.1-0.9-12.2-1.4-18.3-1.7c-7.7-0.4-15.4-0.4-23,0
					c-17.3,0.9-34.5,4.1-51.1,9.3c-10,3.1-19.7,7-29.2,11.6"/>
				<path class="st2" d="M415.3,386.7c11.8-9.1,14-26.1,4.9-37.9c-3.5-4.5-8.3-7.8-13.7-9.4"/>
				<path class="st2" d="M415.3,386.7c-57.5,44.4-114.1,90-169.6,136.9"/>
				<path class="st2" d="M245.7,523.7c-52.5,44.3-84.6,108.2-88.9,176.7"/>
				<path class="st2" d="M156.8,700.4c-2.1,33,17.7,63.6,48.6,75.3"/>
				<path class="st2" d="M205.4,775.7c29.7,11.2,60.9,17.8,92.7,19.5h0.1"/>
				<path class="st2" d="M314.1,836.3c9.4-9.5,9.2-24.9-0.3-34.2c-4.2-4.1-9.8-6.6-15.7-6.9"/>
				<line class="st2" x1="134.2" y1="1019.3" x2="314.1" y2="836.3"/>
				<line class="st2" x1="120.4" y1="1068" x2="134.2" y2="1019.3"/>
				<path class="st2" d="M120.4,1068L120.4,1068c4.1-0.9,8.1-2,12.1-3.1c18.4-5.3,36-12.8,52.5-22.4c1.2-0.7,2.4-1.4,3.5-2.1
					c16.3-9.8,31.5-21.7,45.1-35.3"/>
				<polyline class="st2" points="233.6,1005.2 233.7,1005.1 533.6,704.8 				"/>
				<path class="st2" d="M533.6,704.8c51.8-51.8,83.4-120.3,89.5-193.3"/>
				<path class="st2" d="M623,511.5c2.1-26,0.1-52.2-6.1-77.6"/>
				<path class="st2" d="M616.9,433.9c-8.8-36.1-26.8-69.3-52.3-96.3"/>
				<line class="st2" x1="773.3" y1="186" x2="564.7" y2="337.5"/>
				<polyline class="st2" points="799.6,105 799.6,105.1 773.3,185.9 				"/>
				<path class="st2" d="M436.5,433.5c-53.8,41.7-106.6,84.5-158.6,128.3"/>
				<path class="st2" d="M561.4,501.2c0.1-1.1,0.2-2.2,0.2-3.2c0.1-1.6,0.1-3.3,0-4.9c-0.8-39.3-31.3-72.3-71.2-75.6
					c-19.3-1.6-38.5,4.1-53.9,16"/>
				<path class="st2" d="M346,730.3c24.5-3.5,47.9-10.6,69.5-20.5c1.2-0.5,2.4-1.1,3.6-1.7c0.4-0.2,0.8-0.4,1.2-0.6
					c6.3-3.1,12.5-6.4,18.6-10c1.5-0.9,3-1.8,4.5-2.7c0.7-0.5,1.5-0.9,2.2-1.4c1.5-0.9,2.9-1.9,4.4-2.9c0,0,0,0,0,0
					c0.1-0.1,0.2-0.1,0.3-0.2c1.4-0.9,2.7-1.8,3.9-2.7c0.7-0.5,1.4-1,2.1-1.5c2.1-1.5,4.2-3.1,6.3-4.7c0.3-0.2,0.6-0.4,0.9-0.6
					c0,0,0.1,0,0.1-0.1c0.8-0.6,1.6-1.2,2.4-1.8c0.3-0.2,0.5-0.4,0.8-0.6c1.4-1.1,2.7-2.2,4.1-3.3c2-1.7,4-3.4,5.9-5.1
					c2-1.7,3.9-3.5,5.8-5.3c0.3-0.3,0.6-0.6,1-0.9h0c0.9-0.9,1.9-1.8,2.8-2.7c0.6-0.6,1.3-1.2,1.9-1.8c2.5-2.5,4.9-5,7.2-7.5
					c1.2-1.3,2.3-2.6,3.5-3.9c1.7-2,3.4-3.9,5.1-6c32.2-38.8,52.9-87.3,57.3-140.4"/>
				<path class="st2" d="M255.1,585.9C255.1,585.9,255.1,586,255.1,585.9c-9.4,14.1-14.4,29.6-15.6,45.2
					c-0.8,10.7,0.3,21.5,3.2,31.8c0.8,2.7,1.6,5.4,2.6,8c0.2,0.5,0.4,0.9,0.5,1.4c0.5,1.3,1.1,2.6,1.6,3.9c0.4,0.9,0.8,1.7,1.2,2.6
					c0.4,0.8,0.8,1.7,1.3,2.5c0.2,0.4,0.5,0.9,0.7,1.3c0.4,0.8,0.9,1.6,1.4,2.5c1,1.8,2.2,3.6,3.3,5.3c0.3,0.5,0.7,1,1,1.5
					c4.5,6.4,9.9,12.3,16.1,17.5c0.8,0.6,1.5,1.3,2.3,1.9c2,1.5,4,3,6.1,4.4c19.2,12.8,42.4,18.1,65.2,14.8h0.1"/>
				<line class="st2" x1="255.1" y1="585.9" x2="255.1" y2="585.9"/>
				<path class="st2" d="M278,561.9c0,0-0.1,0.1-0.1,0.1c-8.3,7.4-15.8,15.3-22.8,24"/>
			</g>
		</g>
	</g>
</g>
</svg>
