<?xml version="1.0" encoding="utf-8"?>
<!-- Generator: Adobe Illustrator 23.0.1, SVG Export Plug-In . SVG Version: 6.00 Build 0)  -->
<svg version="1.1" id="katman_1" xmlns:dsy="http://www.3ds.com/print"
	 xmlns="http://www.w3.org/2000/svg" xmlns:xlink="http://www.w3.org/1999/xlink" x="0px" y="0px" viewBox="0 0 811.1 1079.4"
	 style="enable-background:new 0 0 811.1 1079.4;" xml:space="preserve">
<style type="text/css">
	.st0{fill:#646464;}
	.st1{fill:none;stroke:#646464;stroke-width:22;stroke-linecap:round;}
</style>
<g id="XMLID_1_">
	<g>
		<g id="XMLID_2_">
			<g>
				<path class="st0" d="M799.7,105l-26.3,80.9v0.1L564.7,337.5l-0.1,0.1c25.5,27,43.5,60.2,52.3,96.3c6.2,25.4,8.2,51.6,6.1,77.6
					h0.1c-6.1,73-37.7,141.5-89.5,193.3l-299.9,300.4v-0.1c-31.1,31.2-70.3,53-113.2,62.9l13.8-48.7l179.9-183
					c9.4-9.5,9.2-24.9-0.3-34.2c-4.2-4.1-9.8-6.6-15.7-6.9c-15.9-0.9-31.7-2.9-47.1-6.2c-15.5-3.3-30.7-7.7-45.6-13.3
					c-30.9-11.7-50.7-42.3-48.6-75.3c4.3-68.5,36.4-132.4,88.9-176.7v-0.1c55.5-46.9,112.1-92.5,169.6-136.9
					c11.8-9.1,14-26.1,4.9-37.9c-3.5-4.5-8.3-7.8-13.7-9.4C356.2,324.5,302.1,329,254.9,352l-144.4,70.3
					c-19.9,7.9-37.1,21.4-49.4,38.9l-49.3-8.6l8.7-49.2v-0.1L559.8,11.5l-26.3,80.9L330.4,240c-8.2,5.9-10,17.4-4,25.5
					c0.3,0.4,0.6,0.8,1,1.1l-0.1,0.1c7.4,8.5,19,12.2,30,9.5c57.5-14.1,118.2-3.8,167.9,28.4c0.9-0.7,1.9-1.4,2.8-2.1l2-1.5
					L799.7,105z M561.4,501.2c3.5-42.7-28.3-80.2-71-83.7c-19.3-1.6-38.5,4.1-53.9,16c-53.8,41.7-106.6,84.5-158.6,128.3l0.1,0.1
					c-8.3,7.4-15.9,15.4-22.9,24.1H255c-28.6,42.9-17.1,100.8,25.8,129.5c19.2,12.8,42.4,18.1,65.2,14.8
					C462.4,713.5,551.7,618.5,561.4,501.2L561.4,501.2z"/>
			</g>
			<g>
			</g>
		</g>
	</g>
	<g>
		<line class="st1" x1="799.6" y1="105" x2="529.9" y2="301"/>
		<line class="st1" x1="527.9" y1="302.5" x2="529.9" y2="301"/>
		<path class="st1" d="M527.9,302.5c-0.9,0.7-1.9,1.4-2.8,2.1c0,0,0,0-0.1,0"/>
		<path class="st1" d="M525.1,304.5c-49.6-32.1-110.3-42.4-167.8-28.3"/>
		<path class="st1" d="M327.3,266.7c7.4,8.5,19,12.2,30,9.5"/>
		<path class="st1" d="M330.4,240c-8.2,5.9-10,17.4-4,25.5c0.3,0.4,0.6,0.8,1,1.1c0,0,0,0,0,0.1"/>
		<line class="st1" x1="533.5" y1="92.4" x2="330.4" y2="240"/>
		<line class="st1" x1="559.8" y1="11.5" x2="533.5" y2="92.4"/>
		<line class="st1" x1="559.8" y1="11.5" x2="20.5" y2="403.3"/>
		<line class="st1" x1="11.8" y1="452.6" x2="20.5" y2="403.4"/>
		<line class="st1" x1="61" y1="461.2" x2="11.8" y2="452.6"/>
		<path class="st1" d="M110.4,422.3c-19.9,7.9-37.1,21.4-49.4,38.9"/>
		<line class="st1" x1="110.4" y1="422.3" x2="254.8" y2="352"/>
		<path class="st1" d="M406.5,339.4C356.1,324.5,302,329,254.8,352"/>
		<path class="st1" d="M415.3,386.7c11.8-9.1,14-26.1,4.9-37.9c-3.5-4.5-8.3-7.8-13.7-9.4"/>
		<path class="st1" d="M415.3,386.7c-57.5,44.4-114.1,90-169.6,136.9"/>
		<path class="st1" d="M245.7,523.7c-52.5,44.3-84.6,108.2-88.9,176.7"/>
		<path class="st1" d="M156.8,700.4c-2.1,33,17.7,63.6,48.6,75.3"/>
		<path class="st1" d="M205.4,775.7c29.7,11.2,60.9,17.8,92.7,19.5h0.1"/>
		<path class="st1" d="M314.1,836.3c9.4-9.5,9.2-24.9-0.3-34.2c-4.2-4.1-9.8-6.6-15.7-6.9"/>
		<line class="st1" x1="134.2" y1="1019.3" x2="314.1" y2="836.3"/>
		<line class="st1" x1="120.4" y1="1068" x2="134.2" y2="1019.3"/>
		<path class="st1" d="M120.4,1068c42.9-9.9,82.1-31.7,113.2-62.9"/>
		<polyline class="st1" points="233.6,1005.2 233.6,1005.2 533.6,704.8 		"/>
		<path class="st1" d="M533.6,704.8c51.8-51.8,83.4-120.3,89.5-193.3"/>
		<path class="st1" d="M623,511.5c2.1-26,0.1-52.2-6.1-77.6"/>
		<path class="st1" d="M616.9,433.9c-8.8-36.1-26.8-69.3-52.3-96.3"/>
		<line class="st1" x1="773.3" y1="186" x2="564.7" y2="337.5"/>
		<line class="st1" x1="799.6" y1="105" x2="773.3" y2="185.9"/>
		<path class="st1" d="M436.5,433.5c-53.8,41.7-106.6,84.5-158.6,128.3"/>
		<path class="st1" d="M561.4,501.2c3.5-42.7-28.3-80.2-71-83.7c-19.3-1.6-38.5,4.1-53.9,16"/>
		<path class="st1" d="M346,730.3c116.4-16.8,205.7-111.8,215.4-229"/>
		<path class="st1" d="M255.1,585.9L255.1,585.9c-28.7,43-17.2,100.9,25.7,129.6c19.2,12.8,42.4,18.1,65.2,14.8h0.1"/>
		<path class="st1" d="M278,561.9c-8.3,7.4-15.9,15.4-22.9,24.1"/>
	</g>
</g>
</svg>
