<?xml version="1.0" encoding="utf-8"?>
<!-- Generator: Adobe Illustrator 23.0.1, SVG Export Plug-In . SVG Version: 6.00 Build 0)  -->
<svg version="1.1" id="katman_1" xmlns:dsy="http://www.3ds.com/print"
	 xmlns="http://www.w3.org/2000/svg" xmlns:xlink="http://www.w3.org/1999/xlink" x="0px" y="0px" viewBox="0 0 811.1 1079.4"
	 style="enable-background:new 0 0 811.1 1079.4;" xml:space="preserve">
<style type="text/css">
	.st0{fill:#CC3333;}
	.st1{fill:#646464;}
	.st2{fill:#FFFFFF;}
	.st3{fill:none;stroke:#FFFFFF;stroke-miterlimit:10;}
	.st4{fill:none;stroke:#FFFFFF;stroke-width:22;stroke-linecap:round;}
</style>
<g id="XMLID_1_">
	<g>
		<g id="XMLID_2_">
			<g>
				<polygon class="st0" points="799.6,104.9 799.6,105 799.5,105 				"/>
				<polygon class="st1" points="533.6,704.8 233.7,1005.2 233.7,1005.1 				"/>
				<path class="st1" d="M495.5,651.5c1.2-1.3,2.3-2.6,3.5-3.9C497.8,649,496.7,650.3,495.5,651.5z"/>
				<path class="st1" d="M486.4,660.9c0.6-0.6,1.2-1.2,1.9-1.8C487.7,659.7,487,660.3,486.4,660.9z"/>
				<path class="st1" d="M486.4,661c-0.7,0.7-1.4,1.3-2.1,2C485,662.3,485.6,661.6,486.4,661z"/>
				<path class="st1" d="M483.6,663.6c-0.3,0.3-0.6,0.6-1,0.9C482.9,664.2,483.2,663.9,483.6,663.6z"/>
				<path class="st1" d="M482.5,664.6c-1.4,1.4-2.7,2.6-4.1,3.9c-0.5,0.4-1,0.9-1.5,1.3C478.8,668,480.7,666.4,482.5,664.6z"/>
				<path class="st1" d="M470.8,675c-1.3,1.1-2.5,2.1-3.9,3.2C468.2,677.1,469.5,676.1,470.8,675z"/>
				<path class="st1" d="M466.8,678.3C466.8,678.4,466.8,678.4,466.8,678.3C466.8,678.4,466.8,678.4,466.8,678.3z"/>
				<path class="st1" d="M463.6,680.6c0.8-0.6,1.6-1.2,2.4-1.8C465.2,679.4,464.4,680.1,463.6,680.6z"/>
				<path class="st1" d="M466.8,678.4c-1.3,1.1-2.5,2-3.9,3c0.1-0.2,0.4-0.4,0.8-0.7c0.8-0.6,1.6-1.2,2.4-1.8
					C466.4,678.7,466.5,678.5,466.8,678.4z"/>
				<path class="st1" d="M456.3,686c2.2-1.5,4.3-3.1,6.3-4.7C460.6,683,458.5,684.5,456.3,686z"/>
				<path class="st1" d="M453.3,688.2c-0.7,0.5-1.4,1-2.1,1.5c-0.1,0.1-0.2,0.1-0.3,0.2C451.7,689.3,452.5,688.7,453.3,688.2z"/>
				<path class="st1" d="M451.2,689.7c-0.3,0.2-0.5,0.4-0.8,0.6c0.2-0.1,0.4-0.3,0.5-0.4C451,689.8,451.1,689.8,451.2,689.7z"/>
				<path class="st1" d="M446.9,692.5c-0.4,0.3-0.9,0.6-1.3,0.8C446,693,446.5,692.8,446.9,692.5z"/>
				<path class="st1" d="M419.1,708.1c-1.2,0.6-2.4,1.2-3.6,1.7C416.7,709.2,417.9,708.7,419.1,708.1z"/>
				<path class="st0" d="M403.6,270c8-0.2,15.9,0.1,23.9,0.9C419.5,270.2,411.6,269.9,403.6,270z"/>
				<path class="st0" d="M389.5,270.8c1-0.1,2-0.2,3-0.2C391.5,270.7,390.5,270.8,389.5,270.8z"/>
				<path class="st1" d="M335.1,331.1c-1.7,0.1-3.3,0.2-5,0.3C331.8,331.3,333.4,331.2,335.1,331.1z"/>
				<path class="st1" d="M330.1,331.4c-20.8,1.7-41.5,6.5-61.1,14.4c5-2,10-3.8,15-5.4C299,335.7,314.5,332.6,330.1,331.4z"/>
				<path class="st1" d="M269,345.8c-0.8,0.3-1.6,0.6-2.4,1C267.4,346.5,268.2,346.1,269,345.8z"/>
				<path class="st1" d="M263.1,348.3c-0.7,0.3-1.4,0.6-2,0.9C261.7,348.9,262.4,348.6,263.1,348.3z"/>
				<path class="st1" d="M255.5,690.3c0.1,0.1,0.1,0.2,0.1,0.2C255.6,690.5,255.5,690.4,255.5,690.3z"/>
				<path class="st2" d="M248.6,678.8c0.4,0.8,0.8,1.7,1.3,2.5c0.2,0.4,0.5,0.9,0.7,1.3c0.4,0.8,0.9,1.6,1.4,2.5
					c1,1.8,2.2,3.6,3.3,5.3c0.3,0.5,0.7,1,1,1.5c4.5,6.4,9.9,12.3,16.1,17.5c0.8,0.6,1.5,1.3,2.3,1.9c2,1.5,4,3,6.1,4.4
					c19.2,12.8,42.4,18.1,65.2,14.8c24.5-3.5,47.9-10.6,69.5-20.5c1.6-0.7,3.2-1.5,4.8-2.3c6.3-3.1,12.5-6.4,18.6-10
					c1.5-0.9,3-1.8,4.5-2.7c0.7-0.5,1.5-0.9,2.2-1.4c1.5-0.9,2.9-1.9,4.4-2.9s2.9-1.9,4.3-2.9c0.7-0.5,1.4-1,2.1-1.5
					c2.1-1.5,4.2-3.1,6.3-4.7c1.4-1,2.8-2.1,4.1-3.2c1.4-1.1,2.7-2.2,4.1-3.3c2-1.7,4-3.4,5.9-5.1c2-1.7,3.9-3.5,5.8-5.3
					c1.3-1.2,2.5-2.4,3.8-3.6c0.6-0.6,1.3-1.2,1.9-1.8c2.5-2.5,4.9-5,7.2-7.5c1.2-1.3,2.3-2.6,3.5-3.9c1.7-2,3.4-3.9,5.1-6
					c22.1-26.7,38.8-58,48.6-92.2c0,0,0,0,0,0c0.4-1.5,0.9-3.1,1.3-4.7c3.7-14.1,6.2-28.7,7.5-43.6c0.1-0.8,0.1-1.7,0.2-2.6
					c0-0.3,0-0.6,0-0.8c0.1-1.6,0.1-3.3,0-4.9c0-0.6,0-1.2-0.1-1.8c-1.8-38.4-31.9-70.3-71.1-73.6c-19.3-1.6-38.5,4.1-53.9,16
					c-53.8,41.7-106.6,84.5-158.6,128.3c-8.3,7.4-15.8,15.3-22.8,24H255h0c-9.3,13.9-14.4,29.5-15.5,45.1
					c-0.8,10.7,0.3,21.5,3.2,31.8c0.7,2.7,1.6,5.4,2.6,8c0.2,0.5,0.4,0.9,0.5,1.4c0.5,1.3,1.1,2.6,1.6,3.9
					C247.8,677.1,248.2,677.9,248.6,678.8z M233.6,1005.2c-13.6,13.6-28.7,25.4-45.1,35.2c-1.2,0.7-2.4,1.4-3.5,2.1
					c-15.5,8.9-31.9,16.1-49.1,21.4c-1.1,0.3-2.3,0.7-3.4,1c-1,0.3-2,0.5-3,0.8c-3,0.8-5.9,1.6-9,2.3l13.8-48.7l179.9-183
					c9.4-9.5,9.2-24.9-0.3-34.2c-4.2-4.1-9.8-6.6-15.7-6.9c-15.9-0.9-31.7-2.9-47.1-6.2c-15.5-3.3-30.7-7.7-45.6-13.3
					c-30.9-11.7-50.7-42.3-48.6-75.3c4.3-68.5,36.4-132.4,88.9-176.7v-0.1c55.5-46.9,112.1-92.5,169.6-136.9
					c11.8-9.1,14-26.1,4.9-37.9c-3.5-4.5-8.3-7.8-13.7-9.4c-8.7-2.5-17.5-4.5-26.4-6c-1.3-0.2-2.5-0.4-3.8-0.6
					c-6.1-0.9-12.2-1.4-18.3-1.7c-7.7-0.4-15.4-0.4-23,0c-1.7,0.1-3.3,0.2-5,0.3c-15.6,1.2-31.1,4.3-46.1,9
					c-10,3.1-19.7,7-29.2,11.6l-144.4,70.3c-8.7,3.5-16.9,8-24.4,13.5c-0.5,0.4-1.1,0.8-1.6,1.2c-0.5,0.4-1,0.8-1.6,1.2
					c-8.3,6.5-15.7,14.3-21.9,23.1l-49.2-8.6l8.7-49.2v-0.1L559.8,11.5l-26.3,80.9L330.4,240c-8.2,5.9-10,17.4-4,25.5
					c0.3,0.4,0.6,0.8,1,1.1l-0.1,0.1c7.4,8.5,19,12.2,30,9.5c9.7-2.4,19.5-4.1,29.3-5.1c0.3,0,0.5-0.1,0.8-0.1
					c0.7-0.1,1.5-0.1,2.1-0.2c1,0,2-0.1,3-0.2s2-0.1,3-0.2s2-0.1,3-0.2c0.2,0,0.3,0,0.5,0c1.5-0.1,3.1-0.1,4.6-0.2
					c8-0.1,15.9,0.2,23.9,0.9c4.5,0.4,9,0.9,13.4,1.6c4.1,0.6,8.2,1.4,12.3,2.2c0,0,0,0,0,0c14.8,3.2,29.3,7.9,43.1,14.1
					c3,1.3,6,2.8,8.9,4.3c6.8,3.4,13.5,7.2,20,11.4c0.9-0.7,1.9-1.4,2.8-2.1l2-1.5L799.5,105h0.1l-26.3,80.8v0.1L564.7,337.5
					l-0.1,0.1c25.5,27,43.5,60.2,52.3,96.3c6.2,25.4,8.2,51.6,6.1,77.6h0.1c-6.1,73-37.7,141.5-89.5,193.3l-299.9,300.3
					L233.6,1005.2z"/>
				<path class="st0" d="M129.5,1065.7c-3,0.8-5.9,1.6-9,2.3l0,0C123.6,1067.3,126.5,1066.5,129.5,1065.7z"/>
				<path class="st1" d="M82.9,438.1c0.5-0.4,1-0.8,1.6-1.2c0.5-0.4,1.1-0.8,1.6-1.2c7-5.1,14.6-9.3,22.6-12.7
					c-19.1,8-35.6,21.2-47.5,38.1H61C67.2,452.5,74.5,444.7,82.9,438.1z"/>
			</g>
			<g>
				<polyline class="st3" points="533.6,704.8 233.7,1005.2 233.7,1005.1 				"/>
				<path class="st3" d="M495.5,651.5c1.2-1.3,2.3-2.6,3.5-3.9C497.8,649,496.7,650.3,495.5,651.5z"/>
				<path class="st3" d="M488.3,659.2c-0.6,0.6-1.3,1.2-1.9,1.8C487,660.3,487.6,659.7,488.3,659.2
					C488.3,659.1,488.3,659.1,488.3,659.2"/>
				<path class="st3" d="M483.6,663.6c0.2-0.2,0.5-0.4,0.7-0.7c0.7-0.7,1.3-1.3,2.1-2c0,0,0,0,0,0"/>
				<path class="st3" d="M486.4,661c-0.7,0.7-1.4,1.3-2.1,2"/>
				<path class="st3" d="M483.6,663.6c-0.3,0.3-0.6,0.6-1,0.9C482.9,664.2,483.2,663.9,483.6,663.6z"/>
				<path class="st3" d="M476.9,669.8c1.9-1.8,3.8-3.4,5.6-5.2c-1.4,1.4-2.7,2.6-4.1,3.9C477.9,669,477.4,669.4,476.9,669.8z"/>
				<path class="st3" d="M466.9,678.2c1.3-1.1,2.6-2.1,3.9-3.2C469.5,676.1,468.3,677.1,466.9,678.2z"/>
				<line class="st3" x1="466.9" y1="678.3" x2="466.9" y2="678.2"/>
				<path class="st3" d="M466,678.8c-0.8,0.6-1.6,1.3-2.4,1.8C464.4,680,465.2,679.4,466,678.8z"/>
				<path class="st3" d="M466,678.8C466,678.8,466,678.8,466,678.8"/>
				<path class="st3" d="M463.6,680.7C463.6,680.7,463.6,680.7,463.6,680.7c0.9-0.6,1.7-1.2,2.5-1.8c0.3-0.2,0.4-0.4,0.7-0.5
					c0,0,0,0,0,0"/>
				<path class="st3" d="M466.9,678.3C466.9,678.3,466.9,678.3,466.9,678.3L466.9,678.3L466.9,678.3c-0.1,0.1-0.1,0.1-0.1,0.1
					c-1.3,1.1-2.5,2-3.9,3c0.1-0.2,0.4-0.4,0.8-0.7"/>
				<path class="st3" d="M462.5,681.3c-2,1.7-4.1,3.2-6.3,4.7C458.5,684.5,460.6,682.9,462.5,681.3z"/>
				<path class="st3" d="M462.5,681.3C462.6,681.3,462.6,681.3,462.5,681.3"/>
				<path class="st3" d="M453.3,688.2c-0.7,0.5-1.4,1-2.1,1.5c-0.3,0.2-0.5,0.4-0.8,0.6c0.2-0.1,0.4-0.3,0.5-0.4
					C451.7,689.3,452.5,688.7,453.3,688.2"/>
				<path class="st3" d="M453.3,688.2c0.1-0.1,0.2-0.1,0.3-0.2"/>
				<path class="st3" d="M453.6,688c0.2-0.1,0.4-0.3,0.6-0.4"/>
				<path class="st3" d="M447.8,691.9c0.7-0.5,1.5-1,2.2-1.5"/>
				<path class="st3" d="M446.9,692.5c-0.4,0.3-0.9,0.6-1.3,0.8C446,693,446.5,692.8,446.9,692.5z"/>
				<path class="st3" d="M446.9,692.5c0.2-0.1,0.4-0.3,0.7-0.5"/>
				<path class="st3" d="M415.5,709.8c1.2-0.6,2.4-1.1,3.6-1.7"/>
				<path class="st3" d="M266.6,346.8c0.8-0.3,1.6-0.6,2.4-1c5-2,10-3.8,15-5.4"/>
				<path class="st3" d="M257.3,350.9c0.9-0.4,1.8-0.8,2.7-1.2c0.2-0.1,0.4-0.2,0.6-0.3c0.2-0.1,0.3-0.1,0.5-0.2
					c0.7-0.3,1.4-0.6,2-0.9"/>
				<path class="st3" d="M263.1,348.3c-0.7,0.3-1.4,0.6-2,0.9"/>
				<path class="st3" d="M263.1,348.3c1.2-0.5,2.3-1,3.5-1.5"/>
				<path class="st3" d="M335.1,331.1c-1.7,0.1-3.3,0.2-5,0.3c-20.8,1.7-41.5,6.5-61.1,14.4c-0.8,0.3-1.6,0.6-2.4,1"/>
				<path class="st3" d="M256.4,691.7c-0.3-0.4-0.5-0.7-0.8-1c0,0,0,0,0-0.1"/>
				<path class="st3" d="M255.7,690.6C255.7,690.6,255.7,690.6,255.7,690.6"/>
				<path class="st3" d="M255.6,690.5c-0.1-0.1-0.1-0.2-0.1-0.2C255.6,690.4,255.6,690.5,255.6,690.5z"/>
				<line class="st3" x1="623" y1="511.5" x2="623.1" y2="511.5"/>
				<path class="st3" d="M505.2,293.1c6.8,3.4,13.5,7.2,20,11.4c0.9-0.7,1.9-1.4,2.8-2.1l2-1.5L799.5,105l0.1-0.1l0,0.1l-26.3,80.8
					v0.1L564.7,337.5l-0.1,0.1"/>
				<path class="st3" d="M453.2,274.8c14.8,3.2,29.3,7.9,43.1,14.1"/>
				<path class="st3" d="M440.9,272.5c4.1,0.6,8.2,1.4,12.3,2.2"/>
				<path class="st3" d="M403.6,270c8-0.2,15.9,0.1,23.9,0.9"/>
				<path class="st3" d="M395.5,270.4c1-0.1,2-0.1,3-0.2"/>
				<path class="st3" d="M357.3,276.2c9.7-2.4,19.5-4.1,29.3-5.1c0.3,0,0.5-0.1,0.8-0.1c0.7-0.1,1.5-0.1,2.1-0.2c1-0.1,2-0.2,3-0.2"
					/>
				<line class="st3" x1="327.4" y1="266.6" x2="327.3" y2="266.7"/>
				<line class="st3" x1="20.5" y1="403.4" x2="20.5" y2="403.3"/>
				<path class="st3" d="M129.5,1065.7c-3,0.8-5.9,1.6-9,2.3l0,0l13.8-48.7l179.9-183c9.4-9.5,9.2-24.9-0.3-34.2
					c-4.2-4.1-9.8-6.6-15.7-6.9c-15.9-0.9-31.7-2.9-47.1-6.2c-15.5-3.3-30.7-7.7-45.6-13.3c-30.9-11.7-50.7-42.3-48.6-75.3
					c4.3-68.5,36.4-132.4,88.9-176.7v-0.1c55.5-46.9,112.1-92.5,169.6-136.9c11.8-9.1,14-26.1,4.9-37.9c-3.5-4.5-8.3-7.8-13.7-9.4
					c-8.7-2.5-17.5-4.5-26.4-6"/>
				<path class="st3" d="M233.6,1005.2c-13.6,13.6-28.7,25.4-45.1,35.2c-1.2,0.7-2.4,1.4-3.5,2.1c-15.5,8.9-31.9,16.1-49.1,21.4"/>
				<path class="st3" d="M255.1,586L255.1,586H255c-9.3,13.9-14.4,29.5-15.5,45.1"/>
				<path class="st3" d="M561.5,491.3c-1.8-38.4-31.9-70.3-71.1-73.6c-19.3-1.6-38.5,4.1-53.9,16c-53.8,41.7-106.6,84.5-158.6,128.3
					"/>
				<path class="st3" d="M561.4,501.4c0.1-0.8,0.1-1.7,0.2-2.6"/>
				<path class="st3" d="M552.7,549.7c0.4-1.5,0.9-3.1,1.3-4.7"/>
				<path class="st3" d="M346,730.5c24.5-3.5,47.9-10.6,69.5-20.5c1.6-0.7,3.2-1.5,4.8-2.3c6.3-3.1,12.5-6.4,18.6-10
					c1.5-0.9,3-1.8,4.5-2.7c0.7-0.5,1.5-0.9,2.2-1.4c1.5-0.9,2.9-1.9,4.4-2.9s2.9-1.9,4.3-2.9c0.7-0.5,1.4-1,2.1-1.5
					c2.1-1.5,4.2-3.1,6.3-4.7c1.4-1,2.8-2.1,4.1-3.2c1.4-1.1,2.7-2.2,4.1-3.3c2-1.7,4-3.4,5.9-5.1c2-1.7,3.9-3.5,5.8-5.3
					c1.3-1.2,2.5-2.4,3.8-3.6c0.6-0.6,1.3-1.2,1.9-1.8c2.5-2.5,4.9-5,7.2-7.5c1.2-1.3,2.3-2.6,3.5-3.9c1.7-2,3.4-3.9,5.1-6
					c22.1-26.7,38.8-58,48.6-92.2"/>
				<path class="st3" d="M242.7,662.9c0.7,2.7,1.6,5.4,2.6,8"/>
				<path class="st3" d="M86,435.8c7-5.1,14.6-9.3,22.6-12.7c0.6-0.3,1.2-0.5,1.9-0.8L254.8,352"/>
				<path class="st3" d="M82.9,438.1c0.5-0.4,1-0.8,1.6-1.2"/>
				<path class="st3" d="M108.6,423.1c-19.1,8-35.6,21.2-47.5,38.1H61"/>
				<polyline class="st4" points="799.6,105 799.6,105 799.5,105 529.9,301 				"/>
				<line class="st4" x1="527.9" y1="302.5" x2="529.9" y2="301"/>
				<path class="st4" d="M527.9,302.5c-0.9,0.7-1.9,1.4-2.8,2.1c0,0,0,0-0.1,0c0,0,0,0-0.1,0"/>
				<path class="st4" d="M525.1,304.5c-6.4-4.2-13.1-8-19.9-11.4c-3-1.5-5.9-2.9-8.9-4.3c-13.9-6.2-28.3-10.9-43.1-14.1c0,0,0,0,0,0
					c-4.1-0.9-8.1-1.6-12.3-2.2c-4.4-0.7-8.9-1.2-13.4-1.6c-8-0.7-15.9-1-23.9-0.9c-1.5,0-3.1,0.1-4.6,0.2c-0.2,0-0.3,0-0.5,0h-0.1
					c-1,0-1.9,0.1-2.9,0.2s-2,0.1-3,0.2s-2,0.2-3,0.2c-0.7,0.1-1.4,0.1-2.1,0.2c-0.3,0-0.6,0.1-0.9,0.1c-9.8,1-19.6,2.7-29.3,5.1"/>
				<path class="st4" d="M327.3,266.7c7.4,8.5,19,12.2,30,9.5"/>
				<path class="st4" d="M330.4,240c-8.2,5.9-10,17.4-4,25.5c0.3,0.4,0.6,0.8,1,1.1c0,0,0,0,0,0.1"/>
				<line class="st4" x1="533.5" y1="92.4" x2="330.4" y2="240"/>
				<line class="st4" x1="559.8" y1="11.5" x2="533.5" y2="92.4"/>
				<line class="st4" x1="559.8" y1="11.5" x2="20.5" y2="403.3"/>
				<line class="st4" x1="11.8" y1="452.6" x2="20.5" y2="403.4"/>
				<line class="st4" x1="61" y1="461.2" x2="11.8" y2="452.6"/>
				<path class="st4" d="M110.4,422.3c-8.7,3.5-16.9,8-24.4,13.5c-0.5,0.4-1.1,0.8-1.6,1.2c-0.5,0.4-1,0.8-1.6,1.2
					c-8.3,6.5-15.7,14.3-21.9,23.1"/>
				<line class="st4" x1="110.4" y1="422.3" x2="254.8" y2="352"/>
				<path class="st4" d="M406.5,339.4c-8.6-2.5-17.5-4.5-26.3-6c-1.3-0.2-2.5-0.4-3.8-0.6c-6.1-0.9-12.2-1.4-18.3-1.7
					c-7.7-0.4-15.4-0.4-23,0c-1.7,0.1-3.3,0.2-5,0.3c-15.6,1.2-31.1,4.3-46.1,9c-10,3.1-19.7,7-29.2,11.6"/>
				<path class="st4" d="M415.3,386.7c11.8-9.1,14-26.1,4.9-37.9c-3.5-4.5-8.3-7.8-13.7-9.4"/>
				<path class="st4" d="M415.3,386.7c-57.5,44.4-114.1,90-169.6,136.9"/>
				<path class="st4" d="M245.7,523.7c-52.5,44.3-84.6,108.2-88.9,176.7"/>
				<path class="st4" d="M156.8,700.4c-2.1,33,17.7,63.6,48.6,75.3"/>
				<path class="st4" d="M205.4,775.7c29.7,11.2,60.9,17.8,92.7,19.5h0.1"/>
				<path class="st4" d="M314.1,836.3c9.4-9.5,9.2-24.9-0.3-34.2c-4.2-4.1-9.8-6.6-15.7-6.9"/>
				<line class="st4" x1="134.2" y1="1019.3" x2="314.1" y2="836.3"/>
				<line class="st4" x1="120.4" y1="1068" x2="134.2" y2="1019.3"/>
				<path class="st4" d="M120.4,1068c0,0,0.1,0,0.1,0c3-0.7,6-1.4,9-2.3c1-0.3,2-0.5,3-0.8c1.1-0.3,2.3-0.7,3.4-1
					c17.2-5.2,33.6-12.4,49.1-21.4c1.2-0.7,2.4-1.4,3.5-2.1c16.3-9.8,31.5-21.7,45.1-35.3"/>
				<polyline class="st4" points="233.6,1005.2 233.7,1005.1 533.6,704.8 				"/>
				<path class="st4" d="M533.6,704.8c51.8-51.8,83.4-120.3,89.5-193.3"/>
				<path class="st4" d="M623,511.5c2.1-26,0.1-52.2-6.1-77.6"/>
				<path class="st4" d="M616.9,433.9c-8.8-36.1-26.8-69.3-52.3-96.3"/>
				<line class="st4" x1="773.3" y1="186" x2="564.7" y2="337.5"/>
				<polyline class="st4" points="799.6,105 799.6,105.1 773.3,185.9 				"/>
				<path class="st4" d="M436.5,433.5c-53.8,41.7-106.6,84.5-158.6,128.3"/>
				<path class="st4" d="M561.4,501.2c0.1-0.8,0.1-1.6,0.2-2.4c0-0.3,0-0.6,0-0.8c0.1-1.6,0.1-3.3,0-4.9c0-0.6,0-1.2-0.1-1.8
					c-1.7-38.5-31.9-70.5-71.1-73.8c-19.3-1.6-38.5,4.1-53.9,16"/>
				<path class="st4" d="M346,730.3c24.5-3.5,47.9-10.6,69.5-20.5c1.2-0.5,2.4-1.1,3.6-1.7c0.4-0.2,0.8-0.4,1.2-0.6
					c6.3-3.1,12.5-6.4,18.6-10c1.5-0.9,3-1.8,4.5-2.7c0.7-0.5,1.5-0.9,2.2-1.4c1.5-0.9,2.9-1.9,4.4-2.9c0.1-0.1,0.2-0.1,0.3-0.2
					c0.2-0.1,0.4-0.3,0.6-0.4c0.1,0,0.2-0.1,0.3-0.2c0.9-0.6,1.7-1.1,2.4-1.7c0,0,0,0,0,0c0.2-0.1,0.4-0.3,0.6-0.4
					c0.7-0.5,1.4-1,2.1-1.5c2.1-1.5,4.2-3.1,6.3-4.7c0.3-0.2,0.6-0.4,0.9-0.6c0,0,0.1,0,0.1-0.1c0.8-0.6,1.6-1.2,2.4-1.8
					c0.3-0.2,0.5-0.4,0.8-0.6c0,0,0,0,0.1,0c1.4-1.1,2.7-2.2,4-3.3c2-1.7,4-3.4,5.9-5.1c0.5-0.5,1.1-0.9,1.6-1.4
					c1.4-1.3,2.8-2.6,4.2-3.9c0.3-0.3,0.6-0.6,1-0.9c0.9-0.9,1.9-1.8,2.8-2.7c0.6-0.6,1.3-1.2,1.9-1.8c2.5-2.5,4.9-5,7.2-7.5
					c1.2-1.3,2.3-2.6,3.5-3.9c1.7-2,3.4-3.9,5.1-6c22.1-26.7,38.8-57.9,48.6-92.1c0,0,0,0,0,0c0.4-1.5,0.9-3.1,1.3-4.7
					c3.7-14.1,6.2-28.7,7.5-43.6"/>
				<path class="st4" d="M255.1,585.9C255.1,585.9,255.1,586,255.1,585.9c-9.4,14.2-14.4,29.6-15.6,45.2
					c-0.8,10.7,0.3,21.5,3.2,31.8c0.8,2.7,1.6,5.4,2.6,8c0.2,0.5,0.4,0.9,0.5,1.4c0.5,1.3,1.1,2.6,1.6,3.9c0.4,0.9,0.8,1.7,1.2,2.6
					c0.4,0.8,0.8,1.7,1.3,2.5c0.2,0.4,0.5,0.9,0.7,1.3c0.4,0.8,0.9,1.6,1.4,2.5c1,1.8,2.2,3.6,3.3,5.3c0.3,0.5,0.7,1,1,1.5
					c4.5,6.4,9.9,12.3,16.1,17.5c0.8,0.6,1.5,1.3,2.3,1.9c2,1.5,4,3,6.1,4.4c19.2,12.8,42.4,18.1,65.2,14.8h0.1"/>
				<line class="st4" x1="255.1" y1="585.9" x2="255.1" y2="585.9"/>
				<path class="st4" d="M278,561.9l-0.1,0.1c-8.3,7.4-15.8,15.3-22.8,24"/>
			</g>
		</g>
	</g>
</g>
</svg>
